<?xml version="1.0" encoding="UTF-8"?><svg version="1.1" xmlns="http://www.w3.org/2000/svg" xmlns:xlink="http://www.w3.org/1999/xlink" viewBox="0 0 1500 1500" width="1500" height="1500" x="0px" y="0px">
              
              <!-- ITEM 0 -->
<g transform="translate(370.0 135.0) rotate(0.0 334.5 428.0) scale(2.980632571319097 2.981446071004392)">
<g transform="translate(-0.0 -0.0)">
<g clip-path="url(#clipPathId-collage-item-0)">
		<defs>
			<clipPath id="clipPathId-collage-item-0">
				<rect x="0.0" y="0.0" width="224.449" height="287.109"/>
			</clipPath>
		</defs>

<g>
	
		<linearGradient id="SVGID_1_-i0" gradientUnits="userSpaceOnUse" x1="0" y1="113.6628" x2="137.9988" y2="113.6628" gradientTransform="matrix(1 0 0 -1 0 230.2171)">
		<stop offset="0" style="stop-color:#B6DD54"/>
		<stop offset="0.1433" style="stop-color:#B2DC54"/>
		<stop offset="0.2918" style="stop-color:#A5D753"/>
		<stop offset="0.4428" style="stop-color:#91D051"/>
		<stop offset="0.5954" style="stop-color:#74C64F"/>
		<stop offset="0.7494" style="stop-color:#4EB94D"/>
		<stop offset="0.9024" style="stop-color:#21A949"/>
		<stop offset="1" style="stop-color:#009E47"/>
	</linearGradient>
	<path style="fill:url(#SVGID_1_-i0);" d="M39.519,81.127c-1.96-1.66-4.84-4.32-7.92-7.88c-0.58-0.68-1.16-1.38-1.74-2.12   c-0.92-1.16-1.84-2.4-2.74-3.7c-0.3-0.42-0.6-0.88-0.88-1.32c-0.6-0.9-1.16-1.84-1.72-2.8c-0.28-0.48-0.56-0.96-0.82-1.46   c-0.28-0.5-0.54-1-0.8-1.52c-0.52-1.04-1.02-2.1-1.48-3.2c-0.3-0.66-0.56-1.34-0.82-2.04c-0.22-0.58-0.42-1.16-0.6-1.74   c-0.18-0.5-0.34-1-0.48-1.52c-0.16-0.48-0.3-0.96-0.42-1.46c-0.22-0.86-0.44-1.74-0.6-2.62c-0.1-0.46-0.2-0.92-0.28-1.38   c-0.14-0.96-0.28-1.94-0.38-2.92c-0.06-0.4-0.08-0.8-0.1-1.22c-0.04-0.36-0.06-0.72-0.08-1.08c-0.12-2.6-0.02-5.28,0.34-8.04   c4-30,22-36,44-32c0.78,0.14,1.52,0.32,2.26,0.56c4.68,1.54,8.36,4.98,11.24,9.4c9.42,14.36,10.5,39.08,10.5,42.04   c0,4,1,10.26,8,12c8,2,12-8,12-18c0-16,6.05-26.325,20-24c12,2,12,20,12,20l-2,92c0,0-10,44.001-26,64.001s-8,34.001-8,34.001H64   c-5.888-15-21.888-19-36-32c-14-12-24.872-34-26.872-46c-4.364-16,4-34,24-34c11.207,0,25.984,5,29.984-3   c0.966-2.437,0.221-7.982-0.257-10.71C52,91.108,41.039,82.428,39.519,81.127z"/>
	
		<linearGradient id="SVGID_2_-i0" gradientUnits="userSpaceOnUse" x1="0" y1="113.6628" x2="137.9988" y2="113.6628" gradientTransform="matrix(1 0 0 -1 0 230.2171)">
		<stop offset="0" style="stop-color:#B6DD54"/>
		<stop offset="0.1433" style="stop-color:#B2DC54"/>
		<stop offset="0.2918" style="stop-color:#A5D753"/>
		<stop offset="0.4428" style="stop-color:#91D051"/>
		<stop offset="0.5954" style="stop-color:#74C64F"/>
		<stop offset="0.7494" style="stop-color:#4EB94D"/>
		<stop offset="0.9024" style="stop-color:#21A949"/>
		<stop offset="1" style="stop-color:#009E47"/>
	</linearGradient>
	<path style="fill:url(#SVGID_2_-i0);" d="M39.519,81.127c-1.96-1.66-4.84-4.32-7.92-7.88c-0.58-0.68-1.16-1.38-1.74-2.12   c-0.92-1.16-1.84-2.4-2.74-3.7c-0.3-0.42-0.6-0.88-0.88-1.32c-0.6-0.9-1.16-1.84-1.72-2.8c-0.28-0.48-0.56-0.96-0.82-1.46   c-0.28-0.5-0.54-1-0.8-1.52c-0.52-1.04-1.02-2.1-1.48-3.2c-0.3-0.66-0.56-1.34-0.82-2.04c-0.22-0.58-0.42-1.16-0.6-1.74   c-0.18-0.5-0.34-1-0.48-1.52c-0.16-0.48-0.3-0.96-0.42-1.46c-0.22-0.86-0.44-1.74-0.6-2.62c-0.1-0.46-0.2-0.92-0.28-1.38   c-0.14-0.96-0.28-1.94-0.38-2.92c-0.06-0.4-0.08-0.8-0.1-1.22c-0.04-0.36-0.06-0.72-0.08-1.08c-0.12-2.6-0.02-5.28,0.34-8.04   c4-30,22-36,44-32c0.78,0.14,1.52,0.32,2.26,0.56c4.68,1.54,8.36,4.98,11.24,9.4c9.42,14.36,10.5,39.08,10.5,42.04   c0,4,1,10.26,8,12c8,2,12-8,12-18c0-16,6.05-26.325,20-24c12,2,12,20,12,20l-2,92c0,0-10,44.001-26,64.001s-8,34.001-8,34.001H64   c-5.888-15-21.888-19-36-32c-14-12-24.872-34-26.872-46c-4.364-16,4-34,24-34c11.207,0,25.984,5,29.984-3   c0.966-2.437,0.221-7.982-0.257-10.71C52,91.108,41.039,82.428,39.519,81.127z"/>
	
		<linearGradient id="SVGID_3_-i0" gradientUnits="userSpaceOnUse" x1="79.0553" y1="123.6102" x2="79.0553" y2="-4.2087" gradientTransform="matrix(1 0 0 -1 0 230.2171)">
		<stop offset="0" style="stop-color:#302926;stop-opacity:0.05"/>
		<stop offset="0.2844" style="stop-color:#2C2523;stop-opacity:0.0784"/>
		<stop offset="0.579" style="stop-color:#1F1B19;stop-opacity:0.1079"/>
		<stop offset="0.8773" style="stop-color:#0B0909;stop-opacity:0.1377"/>
		<stop offset="1" style="stop-color:#000000;stop-opacity:0.15"/>
	</linearGradient>
	<path style="fill:url(#SVGID_3_-i0);" d="M92.112,111.107c0,0-31.939,21.732-16.057,112c0,8-2.631,8.484-5.821,9.135   c-2.21,0.451-4.235,0.866-4.235,0.866h26.113V111.107z"/>
	<path style="fill:#1B8C44;" d="M114.316,72.159c-0.521-0.172-1.088,0.109-1.266,0.633c-8.719,26.162-23.297,38.421-27.025,42.767   c-2.413-4.433-4.928-8.971-7.544-13.677c-13.76-24.76-27.986-50.361-29.486-66.863c-0.049-0.553-0.586-0.941-1.086-0.906   c-0.551,0.051-0.955,0.537-0.906,1.086c1.539,16.924,15.871,42.715,29.73,67.654c4.426,7.965,8.605,15.486,12.379,22.719   c15.16,29.056,5.886,65.784-2.679,88.338c-1.817-8.653-8.857-33.91-31.784-53.561c-0.414-0.359-1.047-0.309-1.41,0.109   c-0.359,0.418-0.311,1.051,0.109,1.41c27.361,23.453,31.619,55.049,31.658,55.365c0.008,0.066,0.039,0.123,0.059,0.184v0.001   c-4.162,10.369-7.823,16.998-7.938,17.2c-0.271,0.48-0.1,1.092,0.381,1.361c0.154,0.088,0.324,0.129,0.49,0.129   c0.35,0,0.688-0.184,0.871-0.51c0.363-0.645,35.988-65.004,12.016-110.953c-1.235-2.367-2.526-4.777-3.842-7.209   c2.543-2.902,18.617-16.155,27.904-44.011C115.123,72.901,114.839,72.335,114.316,72.159z"/>
	
		<linearGradient id="SVGID_4_-i0" gradientUnits="userSpaceOnUse" x1="72.3086" y1="89.1981" x2="224.4474" y2="89.1981" gradientTransform="matrix(1 0 0 -1 0 230.2171)">
		<stop offset="0" style="stop-color:#00E35E"/>
		<stop offset="1" style="stop-color:#00B248"/>
	</linearGradient>
	<path style="fill:url(#SVGID_4_-i0);" d="M110.311,233.109c-2.8-4-0.854-6.928,3.687-8.001c19.769-4.669,48.857-15.742,50-26   c0.153-1.378,0.641-5.757-2-8c-3.314-2.815-9.264-0.319-10,0l0,0c-2.703,1.352-5.952,1.124-8.394-0.657   c-0.592-0.432-1.151-0.887-1.606-1.343c-2-2-2-8,6-12s32-6,50-18s18-24,4-24c-6.609,1.102-11.398,2.81-14.368,4.122   c-2.22,0.981-4.837,0.09-6.005-2.038c-0.029-0.054-0.059-0.108-0.088-0.161c-1.132-2.085-0.529-4.681,1.392-6.074   c3.356-2.434,9.395-6.732,17.069-11.849c0,0,20-12,24-38c3.076-19.995-10.408-28.162-16.8-30.868   c-2.025-0.857-4.19-1.281-6.388-1.307c-8.197-0.096-29.589,2.008-32.811,26.174c-4,30-16,28-20,20s-12-24-12-24s-6-12-20-4   c-10.125,5.786,2,40,2,40s8,26-4,30s-10-16-10-16s2-16-12-10s-26,46.001-16,94.001c8,28,0,28.001,0,28.001h32H110.311z"/>
	
		<linearGradient id="SVGID_5_-i0" gradientUnits="userSpaceOnUse" x1="241.9985" y1="150.0496" x2="167.9985" y2="150.0496" gradientTransform="matrix(1 0 0 -1 0 230.2171)">
		<stop offset="0" style="stop-color:#FFFFED;stop-opacity:0"/>
		<stop offset="0.4031" style="stop-color:#FFFFF6;stop-opacity:0.0806"/>
		<stop offset="1" style="stop-color:#FFFFFF;stop-opacity:0.2"/>
	</linearGradient>
	<path style="fill:url(#SVGID_5_-i0);" d="M223.999,81.107c-2.18,14.12-9.06,24.12-14.92,30.3c3.76-5.74,7.08-13.08,8.48-22.12   c4-26-20-32-20-32s-15.6-1.96-26.38,7.1c7.238-14.413,23.529-15.589,30.047-15.448c1.925,0.042,3.82,0.418,5.602,1.146   C213.052,52.628,227.136,60.717,223.999,81.107z"/>
	<path style="fill:#1B8C44;" d="M192.961,85.384c0.152-0.531-0.154-1.086-0.686-1.236c-0.537-0.164-1.086,0.156-1.236,0.686   c-3.305,11.565-20.486,35.629-48.14,63.005c-0.485-7.975-2.866-40.421-10.067-51.222c-0.309-0.461-0.932-0.52-1.387-0.215   c-0.459,0.307-0.584,1.053-0.277,1.512c7.756,11.633,9.812,51.348,9.834,51.746c0,0,0.007,0.026,0.008,0.038   c-4.917,4.811-10.142,9.714-15.676,14.666c-8.84,7.909-15.621,15.953-20.854,23.651c-1.853-2.923-9.48-16.21-9.48-36.905   c0-0.553-0.447-1-1-1s-1,0.447-1,1c0,20.01,7.438,34.2,10.223,38.772C87.25,214.367,87,234.836,87,235.11c0,0.553,0.447,1,1,1   c0.551,0,1-0.447,1-1c0-0.231,0.212-15.388,10.587-35.109c0.076,0.035,0.147,0.078,0.233,0.093   c0.178,0.031,14.381,2.57,31.252,2.57c4.232,0,8.631-0.16,13.018-0.559c0.551-0.051,0.957-0.537,0.906-1.086   c-0.049-0.551-0.59-0.951-1.086-0.906c-20.051,1.829-40.357-1.413-43.344-1.921c5.579-10.137,13.833-21.361,26.1-32.337   c3.726-3.333,7.312-6.646,10.763-9.927c0.11,0.077,0.235,0.134,0.375,0.162c0.1,0.02,5.178,0.996,13.928,0.996   c8.863,0,21.49-1.002,36.525-5.01c0.533-0.143,0.852-0.691,0.709-1.225c-0.143-0.531-0.686-0.848-1.225-0.709   c-25.789,6.878-44.308,4.786-48.598,4.143C170.07,124.59,189.385,97.897,192.961,85.384z"/>
	
		<linearGradient id="SVGID_6_-i0" gradientUnits="userSpaceOnUse" x1="85.7932" y1="189.6539" x2="14.6774" y2="189.6539" gradientTransform="matrix(1 0 0 -1 0 230.2171)">
		<stop offset="0" style="stop-color:#FFFFED;stop-opacity:0"/>
		<stop offset="0.366" style="stop-color:#FFFFF5;stop-opacity:0.0732"/>
		<stop offset="1" style="stop-color:#FFFFFF;stop-opacity:0.2"/>
	</linearGradient>
	<path style="fill:url(#SVGID_6_-i0);" d="M75.499,11.067c-1.68-0.94-3.5-1.6-5.5-1.96c-22-4-40,2-44,32   c-2.3,17.32,6.04,31.3,13.52,40.02c-1.96-1.66-4.84-4.32-7.92-7.88c-0.56-0.68-1.16-1.38-1.74-2.12c-0.92-1.16-1.84-2.4-2.74-3.7   c-0.3-0.42-0.6-0.88-0.88-1.32c-0.6-0.9-1.16-1.84-1.72-2.8c-0.28-0.48-0.56-0.96-0.82-1.46c-0.28-0.5-0.54-1-0.8-1.52   c-0.52-1.04-1.02-2.1-1.48-3.2c-0.3-0.66-0.56-1.34-0.82-2.04c-0.22-0.58-0.42-1.16-0.6-1.74c-0.18-0.5-0.34-1-0.48-1.52   c-0.16-0.48-0.3-0.96-0.42-1.46c-0.22-0.86-0.44-1.74-0.6-2.62c-0.1-0.46-0.2-0.92-0.28-1.38c-0.14-0.96-0.28-1.94-0.38-2.92   c-0.06-0.4-0.08-0.8-0.1-1.22c-0.04-0.36-0.06-0.72-0.08-1.08c-0.12-2.6-0.02-5.28,0.34-8.04c4-30,22-36,44-32   c0.78,0.14,1.52,0.32,2.26,0.56C68.939,3.207,72.619,6.647,75.499,11.067z"/>
	
		<linearGradient id="SVGID_7_-i0" gradientUnits="userSpaceOnUse" x1="115.063" y1="164.2768" x2="115.063" y2="94.2379" gradientTransform="matrix(1 0 0 -1 0 230.2171)">
		<stop offset="0" style="stop-color:#302926;stop-opacity:0.05"/>
		<stop offset="0.2844" style="stop-color:#2C2523;stop-opacity:0.0784"/>
		<stop offset="0.579" style="stop-color:#1F1B19;stop-opacity:0.1079"/>
		<stop offset="0.8773" style="stop-color:#0B0909;stop-opacity:0.1377"/>
		<stop offset="1" style="stop-color:#000000;stop-opacity:0.15"/>
	</linearGradient>
	<path style="fill:url(#SVGID_7_-i0);" d="M115.519,136.427c5.94-7.94,0.04-27.14,0.04-27.14s-12.14-34.22-2-40   c0.14-0.08,0.28-0.16,0.4-0.22c-6.18,9.2,4.04,38.04,4.04,38.04S125.279,130.767,115.519,136.427z"/>
	
		<linearGradient id="SVGID_8_-i0" gradientUnits="userSpaceOnUse" x1="123.9784" y1="-33.8914" x2="57.5784" y2="-33.8914" gradientTransform="matrix(1 0 0 -1 0 230.2171)">
		<stop offset="0" style="stop-color:#7C483E"/>
		<stop offset="1" style="stop-color:#896257"/>
	</linearGradient>
	<path style="fill:url(#SVGID_8_-i0);" d="M110.111,287.109H70.112c-6.627,0-12-5.373-12-12v-34h64v33.999   C122.112,281.736,116.739,287.109,110.111,287.109z"/>
	
		<linearGradient id="SVGID_9_-i0" gradientUnits="userSpaceOnUse" x1="128.2118" y1="-8.8914" x2="53.5118" y2="-8.8914" gradientTransform="matrix(1 0 0 -1 0 230.2171)">
		<stop offset="0" style="stop-color:#B16464"/>
		<stop offset="0.59" style="stop-color:#9C6764"/>
		<stop offset="1" style="stop-color:#936864"/>
	</linearGradient>
	<path style="fill:url(#SVGID_9_-i0);" d="M122.111,245.109H58.112c-2.209,0-4-1.791-4-4v-4c0-2.209,1.791-4,4-4H122   c2.262,0,4.112,1.85,4.112,4.112v3.887C126.112,243.317,124.32,245.109,122.111,245.109z"/>
	
		<linearGradient id="SVGID_10_-i0" gradientUnits="userSpaceOnUse" x1="90.1118" y1="-15.0581" x2="90.1118" y2="-18.895" gradientTransform="matrix(1 0 0 -1 0 230.2171)">
		<stop offset="0" style="stop-color:#000000;stop-opacity:0.07"/>
		<stop offset="1" style="stop-color:#302926;stop-opacity:0"/>
	</linearGradient>
	<rect x="58.112" y="245.109" style="fill:url(#SVGID_10_-i0);" width="64" height="4"/>
	
		<linearGradient id="SVGID_11_-i0" gradientUnits="userSpaceOnUse" x1="112.0558" y1="-57.6414" x2="112.0558" y2="-14.1156" gradientTransform="matrix(1 0 0 -1 0 230.2171)">
		<stop offset="0" style="stop-color:#000000;stop-opacity:0.15"/>
		<stop offset="0.1227" style="stop-color:#0B0909;stop-opacity:0.1316"/>
		<stop offset="0.421" style="stop-color:#1F1B19;stop-opacity:0.0868"/>
		<stop offset="0.7156" style="stop-color:#2C2523;stop-opacity:0.0427"/>
		<stop offset="1" style="stop-color:#302926;stop-opacity:0"/>
	</linearGradient>
	<path style="fill:url(#SVGID_11_-i0);" d="M122.112,245.109v29.999c0,6.62-5.492,12.001-12.112,12.001h-8   c6.62,0,12.112-5.381,12.112-12.001v-29.999H122.112z"/>
	<linearGradient id="SVGID_12_-i0" gradientUnits="userSpaceOnUse" x1="39.3679" y1="158.4749" x2="3.2484" y2="141.6239">
		<stop offset="0" style="stop-color:#FFFFED;stop-opacity:0"/>
		<stop offset="0.366" style="stop-color:#FFFFF5;stop-opacity:0.0732"/>
		<stop offset="1" style="stop-color:#FFFFFF;stop-opacity:0.2"/>
	</linearGradient>
	<path style="fill:url(#SVGID_12_-i0);" d="M39.987,122.484c-2.179-1.445-28.875-7.375-37.75,13.375   c-8.217,19.211,10.25,46.375,10.25,46.375s-7.375-28.125,0.625-44.125S39.987,122.484,39.987,122.484z"/>
</g>

</g>
</g>
</g>

<!-- ITEM 1 -->
<g transform="translate(167.0 753.0) rotate(0.0 203.0 203.0) scale(1.406728040663449 1.4056322229069582)">
<g transform="translate(-0.0 -0.0)">
<g clip-path="url(#clipPathId-collage-item-1)">
		<defs>
			<clipPath id="clipPathId-collage-item-1">
				<rect x="0.0" y="0.0" width="288.613" height="288.838"/>
			</clipPath>
		</defs>

<g>
	
		<linearGradient id="SVGID_1_-i1" gradientUnits="userSpaceOnUse" x1="121.9037" y1="124.37" x2="121.9037" y2="41.0399" gradientTransform="matrix(0.504 -0.8637 -0.8637 -0.504 141.2192 254.1466)">
		<stop offset="0" style="stop-color:#00BB4D"/>
		<stop offset="1" style="stop-color:#00AA21"/>
	</linearGradient>
	<path style="fill:url(#SVGID_1_-i1);" d="M151.137,30.43c21.588,47.448,24.227,94.791,7.888,142.035   c-3.323,9.662-7.442,19.3-12.36,28.958c-1.457,2.855-5.553,2.85-6.981-0.021c-18.755-37.621-25.566-75.195-20.459-112.715   c0.154-1.137,0.326-2.264,0.514-3.382c0.478-3.241,1.074-6.482,1.775-9.709c3.154-15.087,8.242-30.156,15.276-45.225   C139.64,24.299,148.367,24.344,151.137,30.43z"/>
	
		<linearGradient id="SVGID_2_-i1" gradientUnits="userSpaceOnUse" x1="-18.1749" y1="125.8388" x2="-18.1749" y2="42.5088" gradientTransform="matrix(-1 0 0 -1 59.5917 213.6762)">
		<stop offset="0" style="stop-color:#00BB4D"/>
		<stop offset="1" style="stop-color:#00AA21"/>
	</linearGradient>
	<path style="fill:url(#SVGID_2_-i1);" d="M8.627,95.598c16.56,1.52,32.14,4.72,46.76,9.6c3.14,1.02,6.24,2.14,9.28,3.36   c1.06,0.4,2.12,0.82,3.18,1.26c34.98,14.5,64,39.32,87.04,74.48c1.76,2.68-0.3,6.22-3.5,6.04c-10.82-0.62-21.22-1.92-31.24-3.92   c-49.04-9.7-88.6-35.84-118.7-78.4C-2.412,102.558,1.948,94.998,8.627,95.598z"/>
	<path style="fill:#1B8C44;" d="M14.169,109.39l29.045,16.769l-15.518,4.156c-0.533,0.145-0.85,0.692-0.707,1.227   c0.121,0.445,0.526,0.74,0.967,0.74c0.086,0,0.172-0.012,0.26-0.033l17.449-4.675l14.87,8.585l-17.566,4.705   c-0.533,0.145-0.85,0.692-0.707,1.227c0.121,0.445,0.526,0.74,0.967,0.74c0.086,0,0.172-0.012,0.26-0.033l19.498-5.224   l16.602,9.585l-24.396,6.535c-0.533,0.145-0.85,0.692-0.707,1.227c0.121,0.445,0.526,0.74,0.967,0.74   c0.086,0,0.172-0.012,0.26-0.033l26.327-7.054l19.274,11.128c0.158,0.092,0.33,0.135,0.5,0.135c0.344,0,0.681-0.18,0.865-0.5   c0.278-0.478,0.114-1.09-0.365-1.365l-19.389-11.194l-7.006-26.149c-0.145-0.535-0.704-0.836-1.225-0.709   c-0.535,0.145-0.852,0.692-0.709,1.227l6.489,24.217l-16.603-9.586l-5.176-19.319c-0.145-0.533-0.704-0.838-1.225-0.709   c-0.535,0.145-0.852,0.692-0.709,1.225l4.659,17.389l-14.87-8.585l-4.627-17.271c-0.145-0.531-0.694-0.838-1.227-0.707   c-0.533,0.145-0.85,0.692-0.707,1.227l4.11,15.336l-28.93-16.703c-0.476-0.28-1.09-0.114-1.365,0.365   C13.528,108.504,13.692,109.115,14.169,109.39z"/>
	
		<linearGradient id="SVGID_3_-i1" gradientUnits="userSpaceOnUse" x1="-2.7045" y1="109.7319" x2="-29.7044" y2="58.5652" gradientTransform="matrix(-1 0 0 -1 59.5917 213.6762)">
		<stop offset="0" style="stop-color:#302926;stop-opacity:0"/>
		<stop offset="0.29" style="stop-color:#27211F;stop-opacity:0.0435"/>
		<stop offset="0.7616" style="stop-color:#0F0D0C;stop-opacity:0.1142"/>
		<stop offset="1" style="stop-color:#000000;stop-opacity:0.15"/>
	</linearGradient>
	<path style="fill:url(#SVGID_3_-i1);" d="M64.667,108.558c-0.1-0.22-0.2-0.44-0.3-0.66l2.84,0.94l0.64,0.98l29.36,45.02l-3.98,1.14   l-10.02,2.86l-27.82-53.64C58.528,106.218,61.627,107.338,64.667,108.558z"/>
	
		<linearGradient id="SVGID_4_-i1" gradientUnits="userSpaceOnUse" x1="-48.8164" y1="195.3328" x2="-48.8164" y2="45.1801" gradientTransform="matrix(-1 0 0 -1 59.5917 213.6762)">
		<stop offset="0" style="stop-color:#00E35E"/>
		<stop offset="1" style="stop-color:#00B248"/>
	</linearGradient>
	<path style="fill:url(#SVGID_4_-i1);" d="M57.667,2.098c74.44,52.62,114.3,125.22,119.56,217.78c0.28,4.64-4.88,7.64-8.78,5.08   c-17.96-11.78-34.04-24.62-48.3-38.54c-9.86-9.64-18.84-19.78-26.92-30.44c-11.24-14.82-20.74-30.62-28.56-47.42   c-0.1-0.22-0.2-0.44-0.3-0.66c-13.3-28.88-21.54-60.68-24.74-95.4C38.747,2.838,49.728-3.502,57.667,2.098z"/>
	<path style="fill:#1B8C44;" d="M51.022,15.247L75.925,58.38l-23.592-6.322c-0.539-0.141-1.082,0.174-1.227,0.707   c-0.143,0.534,0.174,1.082,0.707,1.225l25.526,6.84l13.11,22.707l-26.567-7.119c-0.539-0.14-1.082,0.174-1.227,0.707   c-0.143,0.534,0.174,1.082,0.707,1.225l28.501,7.637l14.562,25.222l-36.487-9.776c-0.538-0.142-1.082,0.173-1.227,0.707   c-0.143,0.534,0.174,1.082,0.707,1.225l38.421,10.295l10.205,17.677l-23.591-6.323c-0.539-0.129-1.082,0.174-1.227,0.707   c-0.143,0.536,0.174,1.082,0.707,1.227l25.526,6.841l14.884,25.781c0.183,0.32,0.521,0.5,0.865,0.5c0.17,0,0.342-0.043,0.5-0.135   c0.478-0.275,0.642-0.886,0.365-1.365l-14.979-25.945l6.77-25.264c0.143-0.536-0.174-1.082-0.707-1.227   c-0.541-0.131-1.082,0.176-1.227,0.707l-6.252,23.333l-10.205-17.675l10.226-38.161c0.143-0.534-0.174-1.082-0.707-1.225   c-0.539-0.141-1.082,0.174-1.227,0.707l-9.707,36.228L93.496,84.826l7.568-28.242c0.143-0.534-0.174-1.082-0.707-1.225   c-0.541-0.144-1.082,0.173-1.227,0.707l-7.049,26.309l-13.11-22.708l6.77-25.264c0.143-0.534-0.174-1.082-0.707-1.225   c-0.543-0.141-1.082,0.174-1.227,0.707l-6.251,23.331L52.75,14.248c-0.275-0.478-0.888-0.638-1.365-0.366   C50.906,14.158,50.742,14.77,51.022,15.247z"/>
	
		<linearGradient id="SVGID_5_-i1" gradientUnits="userSpaceOnUse" x1="210.8464" y1="125.8388" x2="210.8464" y2="42.5088" gradientTransform="matrix(1 0 0 -1 0 213.6762)">
		<stop offset="0" style="stop-color:#00BB4D"/>
		<stop offset="1" style="stop-color:#00AA21"/>
	</linearGradient>
	<path style="fill:url(#SVGID_5_-i1);" d="M287.166,108.018c-30.1,42.56-69.66,68.7-118.7,78.4c-10.02,2-20.42,3.3-31.24,3.92   c-3.2,0.18-5.26-3.36-3.5-6.04c23.04-35.16,52.06-59.98,87.04-74.48c1.06-0.44,2.12-0.86,3.18-1.26c3.04-1.22,6.14-2.34,9.28-3.36   c14.62-4.88,30.2-8.08,46.76-9.6C286.666,94.998,291.026,102.558,287.166,108.018z"/>
	<path style="fill:#1B8C44;" d="M274.809,108.026c-0.275-0.479-0.889-0.645-1.365-0.365l-28.93,16.703l4.11-15.336   c0.143-0.535-0.174-1.082-0.707-1.227c-0.533-0.131-1.082,0.176-1.227,0.707l-4.627,17.271l-14.87,8.585l4.659-17.389   c0.143-0.533-0.174-1.08-0.709-1.225c-0.521-0.129-1.08,0.176-1.225,0.709l-5.176,19.319l-16.603,9.586l6.489-24.217   c0.143-0.535-0.174-1.082-0.709-1.227c-0.521-0.127-1.08,0.174-1.225,0.709l-7.006,26.149l-19.389,11.194   c-0.479,0.275-0.643,0.887-0.365,1.365c0.184,0.32,0.521,0.5,0.865,0.5c0.17,0,0.342-0.043,0.5-0.135l19.274-11.128l26.327,7.054   c0.088,0.021,0.174,0.033,0.26,0.033c0.441,0,0.846-0.295,0.967-0.74c0.143-0.535-0.174-1.082-0.707-1.227l-24.396-6.535   l16.602-9.585l19.498,5.224c0.088,0.021,0.174,0.033,0.26,0.033c0.441,0,0.846-0.295,0.967-0.74   c0.143-0.535-0.174-1.082-0.707-1.227l-17.566-4.705l14.87-8.585l17.449,4.675c0.088,0.021,0.174,0.033,0.26,0.033   c0.441,0,0.846-0.295,0.967-0.74c0.143-0.535-0.174-1.082-0.707-1.227l-15.518-4.156l29.045-16.769   C274.922,109.115,275.086,108.504,274.809,108.026z"/>
	
		<linearGradient id="SVGID_6_-i1" gradientUnits="userSpaceOnUse" x1="226.3169" y1="109.7319" x2="199.3169" y2="58.5652" gradientTransform="matrix(1 0 0 -1 0 213.6762)">
		<stop offset="0" style="stop-color:#302926;stop-opacity:0"/>
		<stop offset="0.29" style="stop-color:#27211F;stop-opacity:0.0435"/>
		<stop offset="0.7616" style="stop-color:#0F0D0C;stop-opacity:0.1142"/>
		<stop offset="1" style="stop-color:#000000;stop-opacity:0.15"/>
	</linearGradient>
	<path style="fill:url(#SVGID_6_-i1);" d="M233.226,105.198l-27.82,53.64l-10.02-2.86l-3.98-1.14l29.36-45.02l0.64-0.98l2.84-0.94   c-0.1,0.22-0.2,0.44-0.3,0.66C226.986,107.338,230.086,106.218,233.226,105.198z"/>
	
		<linearGradient id="SVGID_7_-i1" gradientUnits="userSpaceOnUse" x1="180.205" y1="195.3328" x2="180.205" y2="45.1801" gradientTransform="matrix(1 0 0 -1 0 213.6762)">
		<stop offset="0" style="stop-color:#00E35E"/>
		<stop offset="1" style="stop-color:#00B248"/>
	</linearGradient>
	<path style="fill:url(#SVGID_7_-i1);" d="M248.986,12.498c-3.2,34.72-11.44,66.52-24.74,95.4c-0.1,0.22-0.2,0.44-0.3,0.66   c-7.82,16.8-17.32,32.6-28.56,47.42c-8.08,10.66-17.06,20.8-26.92,30.44c-14.26,13.92-30.34,26.76-48.3,38.54   c-3.9,2.56-9.06-0.44-8.78-5.08c5.26-92.56,45.12-165.16,119.56-217.78C238.885-3.502,249.866,2.838,248.986,12.498z"/>
	<path style="fill:#1B8C44;" d="M237.229,13.882c-0.477-0.272-1.09-0.112-1.365,0.366l-24.807,42.968l-6.251-23.331   c-0.145-0.533-0.684-0.848-1.227-0.707c-0.533,0.143-0.85,0.691-0.707,1.225l6.77,25.264l-13.11,22.708l-7.049-26.309   c-0.145-0.534-0.686-0.851-1.227-0.707c-0.533,0.143-0.85,0.691-0.707,1.225l7.568,28.242l-14.562,25.222l-9.707-36.228   c-0.145-0.533-0.688-0.848-1.227-0.707c-0.533,0.143-0.85,0.691-0.707,1.225l10.226,38.161l-10.205,17.675l-6.252-23.333   c-0.145-0.531-0.686-0.838-1.227-0.707c-0.533,0.145-0.85,0.691-0.707,1.227l6.77,25.264L152.54,158.57   c-0.277,0.479-0.113,1.09,0.365,1.365c0.158,0.092,0.33,0.135,0.5,0.135c0.344,0,0.682-0.18,0.865-0.5l14.884-25.781l25.526-6.841   c0.533-0.145,0.85-0.691,0.707-1.227c-0.145-0.533-0.688-0.836-1.227-0.707l-23.591,6.323l10.205-17.677l38.421-10.295   c0.533-0.143,0.85-0.691,0.707-1.225c-0.145-0.534-0.689-0.849-1.227-0.707l-36.487,9.776l14.562-25.222l28.501-7.637   c0.533-0.143,0.85-0.691,0.707-1.225c-0.145-0.533-0.688-0.847-1.227-0.707l-26.567,7.119l13.11-22.707l25.526-6.84   c0.533-0.143,0.85-0.691,0.707-1.225c-0.145-0.533-0.688-0.848-1.227-0.707l-23.592,6.322l24.903-43.133   C237.871,14.77,237.707,14.158,237.229,13.882z"/>
	<linearGradient id="SVGID_8_-i1" gradientUnits="userSpaceOnUse" x1="58.2075" y1="235.8381" x2="229.4055" y2="235.8381">
		<stop offset="0" style="stop-color:#777284"/>
		<stop offset="1" style="stop-color:#342D47"/>
	</linearGradient>
	<path style="fill:url(#SVGID_8_-i1);" d="M144.208,182.838h-0.802H58.208v46c0,33.137,26.863,60,60,60h25.198h0.802h25.198   c33.137,0,60-26.863,60-60v-46H144.208z"/>
	<linearGradient id="SVGID_9_-i1" gradientUnits="userSpaceOnUse" x1="46.2075" y1="178.8381" x2="241.4055" y2="178.8381">
		<stop offset="0" style="stop-color:#676370"/>
		<stop offset="1" style="stop-color:#3F3454"/>
	</linearGradient>
	<path style="fill:url(#SVGID_9_-i1);" d="M237.406,170.838h-93.198h-0.802H50.208c-2.209,0-4,1.791-4,4v8c0,2.209,1.791,4,4,4h93.198   h0.802h93.198c2.209,0,4-1.791,4-4v-8C241.406,172.629,239.615,170.838,237.406,170.838z"/>
	<g>
		
			<linearGradient id="SVGID_10_-i1" gradientUnits="userSpaceOnUse" x1="-11.6158" y1="55.5048" x2="-11.6158" y2="42.6617" gradientTransform="matrix(-1 0 0 -1 59.5917 213.6762)">
			<stop offset="0" style="stop-color:#B6DD54"/>
			<stop offset="0.1433" style="stop-color:#B2DC54"/>
			<stop offset="0.2918" style="stop-color:#A5D753"/>
			<stop offset="0.4428" style="stop-color:#91D051"/>
			<stop offset="0.5954" style="stop-color:#74C64F"/>
			<stop offset="0.7494" style="stop-color:#4EB94D"/>
			<stop offset="0.9024" style="stop-color:#21A949"/>
			<stop offset="1" style="stop-color:#009E47"/>
		</linearGradient>
		<path style="fill:url(#SVGID_10_-i1);" d="M77.208,164.838v6h-12v-6c0-3.314,2.686-6,6-6l0,0    C74.522,158.838,77.208,161.524,77.208,164.838z"/>
		
			<linearGradient id="SVGID_11_-i1" gradientUnits="userSpaceOnUse" x1="-24.6158" y1="63.6714" x2="-24.6158" y2="40.9827" gradientTransform="matrix(-1 0 0 -1 59.5917 213.6762)">
			<stop offset="0" style="stop-color:#B6DD54"/>
			<stop offset="0.1433" style="stop-color:#B2DC54"/>
			<stop offset="0.2918" style="stop-color:#A5D753"/>
			<stop offset="0.4428" style="stop-color:#91D051"/>
			<stop offset="0.5954" style="stop-color:#74C64F"/>
			<stop offset="0.7494" style="stop-color:#4EB94D"/>
			<stop offset="0.9024" style="stop-color:#21A949"/>
			<stop offset="1" style="stop-color:#009E47"/>
		</linearGradient>
		<path style="fill:url(#SVGID_11_-i1);" d="M91.208,157.838v13h-14v-13c0-3.866,3.134-7,7-7l0,0    C88.074,150.838,91.208,153.972,91.208,157.838z"/>
		
			<linearGradient id="SVGID_12_-i1" gradientUnits="userSpaceOnUse" x1="-53.6158" y1="80.9631" x2="-53.6158" y2="44.3362" gradientTransform="matrix(-1 0 0 -1 59.5917 213.6762)">
			<stop offset="0" style="stop-color:#B6DD54"/>
			<stop offset="0.1433" style="stop-color:#B2DC54"/>
			<stop offset="0.2918" style="stop-color:#A5D753"/>
			<stop offset="0.4428" style="stop-color:#91D051"/>
			<stop offset="0.5954" style="stop-color:#74C64F"/>
			<stop offset="0.7494" style="stop-color:#4EB94D"/>
			<stop offset="0.9024" style="stop-color:#21A949"/>
			<stop offset="1" style="stop-color:#009E47"/>
		</linearGradient>
		<path style="fill:url(#SVGID_12_-i1);" d="M121.208,142.838v28h-16v-28c0-4.418,3.582-8,8-8l0,0    C117.625,134.838,121.208,138.42,121.208,142.838z"/>
		
			<linearGradient id="SVGID_13_-i1" gradientUnits="userSpaceOnUse" x1="-38.6158" y1="72.2131" x2="-38.6158" y2="41.9259" gradientTransform="matrix(-1 0 0 -1 59.5917 213.6762)">
			<stop offset="0" style="stop-color:#B6DD54"/>
			<stop offset="0.1433" style="stop-color:#B2DC54"/>
			<stop offset="0.2918" style="stop-color:#A5D753"/>
			<stop offset="0.4428" style="stop-color:#91D051"/>
			<stop offset="0.5954" style="stop-color:#74C64F"/>
			<stop offset="0.7494" style="stop-color:#4EB94D"/>
			<stop offset="0.9024" style="stop-color:#21A949"/>
			<stop offset="1" style="stop-color:#009E47"/>
		</linearGradient>
		<path style="fill:url(#SVGID_13_-i1);" d="M105.208,149.838v21h-14v-21c0-3.866,3.134-7,7-7l0,0    C102.074,142.838,105.208,145.972,105.208,149.838z"/>
		
			<linearGradient id="SVGID_14_-i1" gradientUnits="userSpaceOnUse" x1="219.4055" y1="55.5048" x2="219.4055" y2="42.6617" gradientTransform="matrix(1 0 0 -1 0 213.6762)">
			<stop offset="0" style="stop-color:#B6DD54"/>
			<stop offset="0.1433" style="stop-color:#B2DC54"/>
			<stop offset="0.2918" style="stop-color:#A5D753"/>
			<stop offset="0.4428" style="stop-color:#91D051"/>
			<stop offset="0.5954" style="stop-color:#74C64F"/>
			<stop offset="0.7494" style="stop-color:#4EB94D"/>
			<stop offset="0.9024" style="stop-color:#21A949"/>
			<stop offset="1" style="stop-color:#009E47"/>
		</linearGradient>
		<path style="fill:url(#SVGID_14_-i1);" d="M219.406,158.838L219.406,158.838c3.314,0,6,2.686,6,6v6h-12v-6    C213.406,161.524,216.091,158.838,219.406,158.838z"/>
		
			<linearGradient id="SVGID_15_-i1" gradientUnits="userSpaceOnUse" x1="206.4055" y1="63.6714" x2="206.4055" y2="40.9827" gradientTransform="matrix(1 0 0 -1 0 213.6762)">
			<stop offset="0" style="stop-color:#B6DD54"/>
			<stop offset="0.1433" style="stop-color:#B2DC54"/>
			<stop offset="0.2918" style="stop-color:#A5D753"/>
			<stop offset="0.4428" style="stop-color:#91D051"/>
			<stop offset="0.5954" style="stop-color:#74C64F"/>
			<stop offset="0.7494" style="stop-color:#4EB94D"/>
			<stop offset="0.9024" style="stop-color:#21A949"/>
			<stop offset="1" style="stop-color:#009E47"/>
		</linearGradient>
		<path style="fill:url(#SVGID_15_-i1);" d="M206.406,150.838L206.406,150.838c3.866,0,7,3.134,7,7v13h-14v-13    C199.406,153.972,202.539,150.838,206.406,150.838z"/>
		
			<linearGradient id="SVGID_16_-i1" gradientUnits="userSpaceOnUse" x1="177.4055" y1="80.9631" x2="177.4055" y2="44.3362" gradientTransform="matrix(1 0 0 -1 0 213.6762)">
			<stop offset="0" style="stop-color:#B6DD54"/>
			<stop offset="0.1433" style="stop-color:#B2DC54"/>
			<stop offset="0.2918" style="stop-color:#A5D753"/>
			<stop offset="0.4428" style="stop-color:#91D051"/>
			<stop offset="0.5954" style="stop-color:#74C64F"/>
			<stop offset="0.7494" style="stop-color:#4EB94D"/>
			<stop offset="0.9024" style="stop-color:#21A949"/>
			<stop offset="1" style="stop-color:#009E47"/>
		</linearGradient>
		<path style="fill:url(#SVGID_16_-i1);" d="M177.406,134.838L177.406,134.838c4.418,0,8,3.582,8,8v28h-16v-28    C169.406,138.42,172.988,134.838,177.406,134.838z"/>
		
			<linearGradient id="SVGID_17_-i1" gradientUnits="userSpaceOnUse" x1="161.2075" y1="86.2582" x2="161.2075" y2="44.5443" gradientTransform="matrix(1 0 0 -1 0 213.6762)">
			<stop offset="0" style="stop-color:#B6DD54"/>
			<stop offset="0.1433" style="stop-color:#B2DC54"/>
			<stop offset="0.2918" style="stop-color:#A5D753"/>
			<stop offset="0.4428" style="stop-color:#91D051"/>
			<stop offset="0.5954" style="stop-color:#74C64F"/>
			<stop offset="0.7494" style="stop-color:#4EB94D"/>
			<stop offset="0.9024" style="stop-color:#21A949"/>
			<stop offset="1" style="stop-color:#009E47"/>
		</linearGradient>
		<path style="fill:url(#SVGID_17_-i1);" d="M161.208,129.838L161.208,129.838c4.418,0,8,3.582,8,8v33h-16v-33    C153.208,133.42,156.79,129.838,161.208,129.838z"/>
		
			<linearGradient id="SVGID_18_-i1" gradientUnits="userSpaceOnUse" x1="129.2075" y1="86.2582" x2="129.2075" y2="44.5443" gradientTransform="matrix(1 0 0 -1 0 213.6762)">
			<stop offset="0" style="stop-color:#B6DD54"/>
			<stop offset="0.1433" style="stop-color:#B2DC54"/>
			<stop offset="0.2918" style="stop-color:#A5D753"/>
			<stop offset="0.4428" style="stop-color:#91D051"/>
			<stop offset="0.5954" style="stop-color:#74C64F"/>
			<stop offset="0.7494" style="stop-color:#4EB94D"/>
			<stop offset="0.9024" style="stop-color:#21A949"/>
			<stop offset="1" style="stop-color:#009E47"/>
		</linearGradient>
		<path style="fill:url(#SVGID_18_-i1);" d="M129.208,129.838L129.208,129.838c4.418,0,8,3.582,8,8v33h-16v-33    C121.208,133.42,124.79,129.838,129.208,129.838z"/>
		
			<linearGradient id="SVGID_19_-i1" gradientUnits="userSpaceOnUse" x1="145.2075" y1="91.5534" x2="145.2075" y2="44.7524" gradientTransform="matrix(1 0 0 -1 0 213.6762)">
			<stop offset="0" style="stop-color:#B6DD54"/>
			<stop offset="0.1433" style="stop-color:#B2DC54"/>
			<stop offset="0.2918" style="stop-color:#A5D753"/>
			<stop offset="0.4428" style="stop-color:#91D051"/>
			<stop offset="0.5954" style="stop-color:#74C64F"/>
			<stop offset="0.7494" style="stop-color:#4EB94D"/>
			<stop offset="0.9024" style="stop-color:#21A949"/>
			<stop offset="1" style="stop-color:#009E47"/>
		</linearGradient>
		<path style="fill:url(#SVGID_19_-i1);" d="M145.208,124.838L145.208,124.838c4.418,0,8,3.582,8,8v38h-16v-38    C137.208,128.42,140.79,124.838,145.208,124.838z"/>
		
			<linearGradient id="SVGID_20_-i1" gradientUnits="userSpaceOnUse" x1="192.4055" y1="72.2131" x2="192.4055" y2="41.9259" gradientTransform="matrix(1 0 0 -1 0 213.6762)">
			<stop offset="0" style="stop-color:#B6DD54"/>
			<stop offset="0.1433" style="stop-color:#B2DC54"/>
			<stop offset="0.2918" style="stop-color:#A5D753"/>
			<stop offset="0.4428" style="stop-color:#91D051"/>
			<stop offset="0.5954" style="stop-color:#74C64F"/>
			<stop offset="0.7494" style="stop-color:#4EB94D"/>
			<stop offset="0.9024" style="stop-color:#21A949"/>
			<stop offset="1" style="stop-color:#009E47"/>
		</linearGradient>
		<path style="fill:url(#SVGID_20_-i1);" d="M192.406,142.838L192.406,142.838c3.866,0,7,3.134,7,7v21h-14v-21    C185.406,145.972,188.539,142.838,192.406,142.838z"/>
	</g>
	
		<linearGradient id="SVGID_21_-i1" gradientUnits="userSpaceOnUse" x1="201.4055" y1="33.8381" x2="201.4055" y2="1.1639" gradientTransform="matrix(1 0 0 -1 0 213.6762)">
		<stop offset="0" style="stop-color:#000000;stop-opacity:0.4"/>
		<stop offset="0.6" style="stop-color:#302926;stop-opacity:0"/>
	</linearGradient>
	<polygon style="fill:url(#SVGID_21_-i1);" points="173.406,186.838 229.406,186.838 229.406,200.838  "/>
	
		<linearGradient id="SVGID_22_-i1" gradientUnits="userSpaceOnUse" x1="195.4055" y1="-75.9119" x2="195.4055" y2="24.8989" gradientTransform="matrix(1 0 0 -1 0 213.6762)">
		<stop offset="0" style="stop-color:#000000;stop-opacity:0.3"/>
		<stop offset="0.177" style="stop-color:#120F0E;stop-opacity:0.2469"/>
		<stop offset="0.4147" style="stop-color:#231E1C;stop-opacity:0.1756"/>
		<stop offset="0.6754" style="stop-color:#2D2623;stop-opacity:0.0974"/>
		<stop offset="1" style="stop-color:#302926;stop-opacity:0"/>
	</linearGradient>
	<path style="fill:url(#SVGID_22_-i1);" d="M229.406,186.838v42c0,33.14-26.86,60-60,60h-8c33.14,0,60-26.86,60-60v-42H229.406z"/>
</g>

</g>
</g>
</g>

<!-- ITEM 2 -->
<g transform="translate(388.0 899.0) rotate(0.0 393.0 176.5) scale(3.742857142857143 3.7396444689281094)">
<g transform="translate(-0.0 -0.0)">
<g clip-path="url(#clipPathId-collage-item-2)">
		<defs>
			<clipPath id="clipPathId-collage-item-2">
				<rect x="0.0" y="0.0" width="210.0" height="94.394"/>
			</clipPath>
		</defs>

<g>
	<linearGradient id="SVGID_1_-i2" gradientUnits="userSpaceOnUse" x1="2" y1="30.8822" x2="102" y2="30.8822">
		<stop offset="0" style="stop-color:#73767A"/>
		<stop offset="0.0417" style="stop-color:#727579"/>
		<stop offset="0.529" style="stop-color:#65686C"/>
		<stop offset="1" style="stop-color:#616468"/>
	</linearGradient>
	<path style="fill:url(#SVGID_1_-i2);" d="M8,51.394c-3.313,0-6-2.687-6-6c0-11.217,3.36-20.041,9.988-26.228   c9.743-9.095,23.093-8.863,25.167-8.772H96c3.313,0,6,2.687,6,6s-2.687,6-6,6l-59.413-0.015c-0.07-0.003-9.979-0.509-16.475,5.62   C16.057,31.825,14,37.678,14,45.394C14,48.707,11.313,51.394,8,51.394z"/>
	
		<linearGradient id="SVGID_2_-i2" gradientUnits="userSpaceOnUse" x1="0" y1="-287.6065" x2="122" y2="-287.6065" gradientTransform="matrix(1 0 0 -1 0 -229.213)">
		<stop offset="0" style="stop-color:#828282"/>
		<stop offset="1" style="stop-color:#616468"/>
	</linearGradient>
	<path style="fill:url(#SVGID_2_-i2);" d="M35.333,22.393H122v72H33.5c-18.502,0-33.5-14.998-33.5-33.5v-3.167   C0,38.213,15.819,22.393,35.333,22.393z"/>
	<linearGradient id="SVGID_3_-i2" gradientUnits="userSpaceOnUse" x1="67.5967" y1="34.5435" x2="67.5967" y2="24.219">
		<stop offset="0" style="stop-color:#FFFFED;stop-opacity:0"/>
		<stop offset="1" style="stop-color:#FFFFFF;stop-opacity:0.07"/>
	</linearGradient>
	<path style="fill:url(#SVGID_3_-i2);" d="M49,22.393H36c-10.656,0-20.218,4.64-26.807,12H126v-12H49z"/>
	
		<linearGradient id="SVGID_4_-i2" gradientUnits="userSpaceOnUse" x1="56" y1="-258.2302" x2="56" y2="-324.4254" gradientTransform="matrix(1 0 0 -1 0 -229.213)">
		<stop offset="0" style="stop-color:#919191"/>
		<stop offset="0.2384" style="stop-color:#828384"/>
		<stop offset="0.71" style="stop-color:#6A6C70"/>
		<stop offset="1" style="stop-color:#616468"/>
	</linearGradient>
	<path style="fill:url(#SVGID_4_-i2);" d="M72,78.394h-9.946c-1.134,0-2.054-0.92-2.054-2.054V49.011v-2.115   c0-8.644-6.642-16.106-15.277-16.486C35.557,30.006,28,37.317,28,46.394v2v42.25c0,2.071,1.679,3.75,3.75,3.75h48.196   c2.226,0,4.058-1.8,4.054-4.026C83.986,83.752,78.618,78.394,72,78.394z"/>
	
		<linearGradient id="SVGID_5_-i2" gradientUnits="userSpaceOnUse" x1="56" y1="-259.6065" x2="56" y2="-324.1479" gradientTransform="matrix(1 0 0 -1 0 -229.213)">
		<stop offset="0" style="stop-color:#020000;stop-opacity:0"/>
		<stop offset="1" style="stop-color:#000000;stop-opacity:0.15"/>
	</linearGradient>
	<path style="fill:url(#SVGID_5_-i2);" d="M72,78.394H62c-1.105,0-2-0.895-2-2V49.011v-2.166c0-8.616-6.621-16.029-15.228-16.433   C35.584,29.98,28,37.3,28,46.394v2v42.188c0,2.106,1.707,3.813,3.813,3.813H80c2.196,0,3.995-1.776,4-3.972   C84.015,83.782,78.636,78.394,72,78.394z"/>
	
		<linearGradient id="SVGID_6_-i2" gradientUnits="userSpaceOnUse" x1="130" y1="-315.6065" x2="210" y2="-315.6065" gradientTransform="matrix(1 0 0 -1 0 -229.213)">
		<stop offset="0" style="stop-color:#73767A"/>
		<stop offset="0.0417" style="stop-color:#727579"/>
		<stop offset="0.529" style="stop-color:#65686C"/>
		<stop offset="1" style="stop-color:#616468"/>
	</linearGradient>
	<path style="fill:url(#SVGID_6_-i2);" d="M206,94.394h-76v-4c0-6.627,5.373-12,12-12h56c6.627,0,12,5.373,12,12l0,0   C210,92.603,208.209,94.394,206,94.394z"/>
	
		<linearGradient id="SVGID_7_-i2" gradientUnits="userSpaceOnUse" x1="193.4867" y1="-232.8711" x2="175.9867" y2="-248.3711" gradientTransform="matrix(1 0 0 -1 0 -229.213)">
		<stop offset="0" style="stop-color:#73767A"/>
		<stop offset="0.0417" style="stop-color:#727579"/>
		<stop offset="0.529" style="stop-color:#65686C"/>
		<stop offset="1" style="stop-color:#616468"/>
	</linearGradient>
	<path style="fill:url(#SVGID_7_-i2);" d="M190.834,2.073L190.834,2.073c-2.776-2.329-6.69-2.734-9.884-1.022l-13.696,7.343   l21.449,17.999l4.854-14.763C194.688,8.188,193.61,4.403,190.834,2.073z"/>
	
		<linearGradient id="SVGID_8_-i2" gradientUnits="userSpaceOnUse" x1="175.9986" y1="-248.6104" x2="186.4986" y2="-236.7771" gradientTransform="matrix(1 0 0 -1 0 -229.213)">
		<stop offset="0" style="stop-color:#302926;stop-opacity:0"/>
		<stop offset="1" style="stop-color:#000000;stop-opacity:0.2"/>
	</linearGradient>
	<path style="fill:url(#SVGID_8_-i2);" d="M170,14.108l13.139-7.417c1.048-0.591,2.352-0.471,3.274,0.302l0,0   c0.922,0.773,1.267,2.037,0.866,3.172l-5.022,14.228L170,14.108z"/>
	
		<linearGradient id="SVGID_9_-i2" gradientUnits="userSpaceOnUse" x1="114.5242" y1="-232.249" x2="131.4409" y2="-249.1659" gradientTransform="matrix(1 0 0 -1 0 -229.213)">
		<stop offset="0" style="stop-color:#73767A"/>
		<stop offset="0.1357" style="stop-color:#6F7275"/>
		<stop offset="0.5752" style="stop-color:#676768"/>
		<stop offset="1" style="stop-color:#646464"/>
	</linearGradient>
	<path style="fill:url(#SVGID_9_-i2);" d="M116.42,2.466L116.42,2.466c2.776-2.329,6.69-2.734,9.884-1.022L140,8.788l-21.449,17.998   l-4.854-14.763C112.565,8.581,113.644,4.797,116.42,2.466z"/>
	
		<linearGradient id="SVGID_10_-i2" gradientUnits="userSpaceOnUse" x1="-104.6284" y1="-249.0036" x2="-94.1284" y2="-237.1702" gradientTransform="matrix(-1 0 0 -1 26.6268 -229.213)">
		<stop offset="0" style="stop-color:#302926;stop-opacity:0"/>
		<stop offset="1" style="stop-color:#000000;stop-opacity:0.2"/>
	</linearGradient>
	<path style="fill:url(#SVGID_10_-i2);" d="M137.254,14.503l-13.139-7.417c-1.048-0.591-2.352-0.471-3.274,0.302l0,0   c-0.922,0.773-1.267,2.037-0.866,3.172l5.023,14.228L137.254,14.503z"/>
	
		<linearGradient id="SVGID_11_-i2" gradientUnits="userSpaceOnUse" x1="110" y1="-279.6065" x2="198" y2="-279.6065" gradientTransform="matrix(1 0 0 -1 0 -229.213)">
		<stop offset="0" style="stop-color:#A3A3A0"/>
		<stop offset="1" style="stop-color:#616468"/>
	</linearGradient>
	<path style="fill:url(#SVGID_11_-i2);" d="M154,94.394L154,94.394c-24.301,0-44-19.699-44-44l0,0c0-24.301,19.699-44,44-44l0,0   c24.3,0,44,19.699,44,44l0,0C198,74.694,178.301,94.394,154,94.394z"/>
	
		<linearGradient id="SVGID_12_-i2" gradientUnits="userSpaceOnUse" x1="124.3386" y1="-257.9894" x2="148.3386" y2="-241.9894" gradientTransform="matrix(1 0 0 -1 0 -229.213)">
		<stop offset="0" style="stop-color:#FFFFED;stop-opacity:0"/>
		<stop offset="1" style="stop-color:#FFFFFF;stop-opacity:0.15"/>
	</linearGradient>
	<path style="fill:url(#SVGID_12_-i2);" d="M125.5,30.393c-0.426,0-0.857-0.137-1.221-0.418c-0.875-0.676-1.035-1.932-0.359-2.805   c5.881-7.607,14.316-12.67,23.75-14.252c1.08-0.191,2.119,0.553,2.303,1.643c0.182,1.088-0.553,2.119-1.643,2.303   c-8.438,1.416-15.982,5.943-21.246,12.752C126.689,30.125,126.098,30.393,125.5,30.393z"/>
	
		<linearGradient id="SVGID_13_-i2" gradientUnits="userSpaceOnUse" x1="171.5841" y1="-286.6059" x2="171.5841" y2="-275.3963" gradientTransform="matrix(1 0 0 -1 0 -229.213)">
		<stop offset="0" style="stop-color:#3A3C3D"/>
		<stop offset="0.1553" style="stop-color:#3F4143"/>
		<stop offset="0.5848" style="stop-color:#484C50"/>
		<stop offset="1" style="stop-color:#4B4F54"/>
	</linearGradient>
	<path style="fill:url(#SVGID_13_-i2);" d="M171.583,56.392c-4.768,0-9.086-2.824-10.998-7.193c-0.443-1.012,0.018-2.191,1.029-2.635   c1.02-0.447,2.193,0.02,2.635,1.029c1.275,2.916,4.154,4.799,7.334,4.799c3.182,0,6.061-1.885,7.336-4.801   c0.441-1.012,1.621-1.48,2.633-1.031c1.012,0.441,1.475,1.621,1.031,2.633C180.673,53.567,176.355,56.392,171.583,56.392z"/>
	
		<linearGradient id="SVGID_14_-i2" gradientUnits="userSpaceOnUse" x1="136.4161" y1="-286.6059" x2="136.4161" y2="-275.3963" gradientTransform="matrix(1 0 0 -1 0 -229.213)">
		<stop offset="0" style="stop-color:#3A3C3D"/>
		<stop offset="0.1553" style="stop-color:#3F4143"/>
		<stop offset="0.5848" style="stop-color:#484C50"/>
		<stop offset="1" style="stop-color:#4B4F54"/>
	</linearGradient>
	<path style="fill:url(#SVGID_14_-i2);" d="M136.415,56.392c-4.768,0-9.086-2.824-10.998-7.193c-0.443-1.012,0.018-2.191,1.029-2.635   c1.02-0.447,2.193,0.02,2.635,1.029c1.275,2.916,4.154,4.799,7.334,4.799c3.182,0,6.061-1.885,7.336-4.801   c0.441-1.012,1.619-1.48,2.633-1.031c1.012,0.441,1.475,1.621,1.031,2.633C145.505,53.567,141.187,56.392,136.415,56.392z"/>
	
		<linearGradient id="SVGID_15_-i2" gradientUnits="userSpaceOnUse" x1="114" y1="-314.6065" x2="114" y2="-251.047" gradientTransform="matrix(1 0 0 -1 0 -229.213)">
		<stop offset="0" style="stop-color:#302926;stop-opacity:0"/>
		<stop offset="1" style="stop-color:#000000;stop-opacity:0.1"/>
	</linearGradient>
	<path style="fill:url(#SVGID_15_-i2);" d="M122,80.594v5.56c-9.82-8.78-16-21.56-16-35.76c0-10.44,3.34-20.12,9.04-28h5   c-6.28,7.6-10.04,17.36-10.04,28C110,62.094,114.56,72.714,122,80.594z"/>
	
		<linearGradient id="SVGID_16_-i2" gradientUnits="userSpaceOnUse" x1="154" y1="-298.1065" x2="154" y2="-288.8531" gradientTransform="matrix(1 0 0 -1 0 -229.213)">
		<stop offset="0" style="stop-color:#3A3C3D"/>
		<stop offset="0.1553" style="stop-color:#3F4143"/>
		<stop offset="0.5848" style="stop-color:#484C50"/>
		<stop offset="1" style="stop-color:#4B4F54"/>
	</linearGradient>
	<path style="fill:url(#SVGID_16_-i2);" d="M160,64.394c0,2.209-1.791,4-4,4h-4c-2.209,0-4-1.791-4-4l0,0c0-2.209,1.791-4,4-4h4   C158.209,60.394,160,62.184,160,64.394L160,64.394z"/>
	
		<linearGradient id="SVGID_17_-i2" gradientUnits="userSpaceOnUse" x1="110" y1="-315.6065" x2="150" y2="-315.6065" gradientTransform="matrix(1 0 0 -1 0 -229.213)">
		<stop offset="0" style="stop-color:#8C8C8C"/>
		<stop offset="1" style="stop-color:#616468"/>
	</linearGradient>
	<path style="fill:url(#SVGID_17_-i2);" d="M146,94.394h-32c-2.209,0-4-1.791-4-4l0,0c0-6.627,5.373-12,12-12h16   c6.627,0,12,5.373,12,12l0,0C150,92.603,148.209,94.394,146,94.394z"/>
	
		<linearGradient id="SVGID_18_-i2" gradientUnits="userSpaceOnUse" x1="56" y1="-318.6065" x2="56" y2="-303.3437" gradientTransform="matrix(1 0 0 -1 0 -229.213)">
		<stop offset="0" style="stop-color:#302926;stop-opacity:0"/>
		<stop offset="1" style="stop-color:#000000;stop-opacity:0.12"/>
	</linearGradient>
	<path style="fill:url(#SVGID_18_-i2);" d="M62,78.394h-2c-5.52,0-10,4.48-10,10v-4c0-5.52,4.48-10,10-10v2   C60,77.494,60.9,78.394,62,78.394z"/>
	<linearGradient id="SVGID_19_-i2" gradientUnits="userSpaceOnUse" x1="102" y1="22.2685" x2="102" y2="22.2685">
		<stop offset="0" style="stop-color:#73767A"/>
		<stop offset="0.0417" style="stop-color:#727579"/>
		<stop offset="0.529" style="stop-color:#65686C"/>
		<stop offset="1" style="stop-color:#616468"/>
	</linearGradient>
	<path style="fill:url(#SVGID_19_-i2);" d="M102,22.268"/>
	<linearGradient id="SVGID_20_-i2" gradientUnits="userSpaceOnUse" x1="52" y1="45.6435" x2="52" y2="3.6369">
		<stop offset="0" style="stop-color:#302926;stop-opacity:0"/>
		<stop offset="1" style="stop-color:#000000;stop-opacity:0.1"/>
	</linearGradient>
	<path style="fill:url(#SVGID_20_-i2);" d="M32.198,22.595c0.515-0.13,0.994-0.201,1.427-0.201H36h58.974c3.881,0,7.026-2.686,7.026-6   c0-3.314-3.145-6-7.026-6H36c-11,0-34,5-34,36c0.027-0.027,0.058-0.057,0.085-0.085C6.644,33.516,18.229,24.061,32.198,22.595z"/>
</g>

</g>
</g>
</g>

              </svg>