<svg xmlns="http://www.w3.org/2000/svg" version="1.1" viewBox="0 0 3000 1687" width="3000" height="1687">
<defs/><!--ITEM: Illustration component 1--><g transform="translate(2079.6875 776.5625) rotate(6.645777780749445 119.53125 230.46875)  scale(1.5044839521711768 1.5128577523959563)"><svg width="158.9" height="304.68" viewBox="0.0 0.0 158.9 304.68"><path d="m79.46 304.68c-1.657 0-3-1.343-3-3v-240.4c0-1.657 1.343-3 3-3s3 1.343 3 3v240.4c0 1.657-1.343 3-3 3z" fill="#5B53E1"/><path d="m126.76 61.28h-94.59c-16.093.017-29.153-13.016-29.17-29.11-.017-16.093 13.016-29.153 29.11-29.17h.06 94.59c16.094 0 29.14 13.046 29.14 29.14s-13.046 29.14-29.14 29.14zm-94.59-35c-3.22.007-5.824 2.623-5.818 5.842.007 3.21 2.607 5.811 5.818 5.818h94.59c3.22.007 5.836-2.598 5.842-5.818s-2.598-5.836-5.818-5.842c-.008 0-.017 0-.025 0z" fill="#fff"/><g fill="#5B53E1"><path d="m32.136 64.28c-8.57 0-16.63-3.333-22.699-9.39-6.077-6.064-9.428-14.132-9.437-22.717-.018-17.722 14.385-32.155 32.107-32.173h94.653c17.722 0 32.14 14.418 32.14 32.14s-14.418 32.14-32.14 32.14h-94.59c-.011 0-.023 0-.034 0zm.034-58.28c-7.04.007-13.601 2.733-18.533 7.675s-7.644 11.51-7.637 18.492 2.733 13.543 7.675 18.476c4.936 4.926 11.492 7.637 18.464 7.637h.028 94.593c14.414 0 26.14-11.727 26.14-26.14s-11.726-26.14-26.14-26.14zm94.603 34.94c-.007 0-.013 0-.019 0h-94.584c-4.855-.011-8.807-3.964-8.817-8.812-.005-2.358.908-4.578 2.573-6.249s3.88-2.595 6.238-2.6h.006 94.59c2.39.005 4.605.928 6.27 2.6s2.578 3.891 2.573 6.25c-.005 2.358-.928 4.574-2.599 6.238-1.668 1.66-3.879 2.573-6.231 2.573zm-94.596-11.66c-.756.001-1.466.297-1.999.833s-.826 1.247-.824 2.002c.003 1.554 1.27 2.821 2.824 2.825h94.583.006c.76 0 1.469-.292 2.003-.825.536-.534.832-1.244.833-2s-.291-1.467-.824-2.003-1.243-.832-1.999-.833h-94.603z"/><path d="m120.84 142.52c-.196 0-.387-.019-.572-.054-11.666-.572-39.262-17.926-42.418-19.935-.865-.551-1.39-1.505-1.39-2.531s.524-1.98 1.39-2.531c3.209-2.042 31.683-19.949 42.99-19.949 12.406 0 22.5 10.093 22.5 22.5s-10.093 22.5-22.5 22.5zm-35.683-22.52c10.22 6.193 28.665 16.48 35.683 16.48.154 0 .305.012.453.034 8.889-.241 16.047-7.547 16.047-16.494 0-9.098-7.402-16.5-16.5-16.5-7.018 0-25.463 10.287-35.683 16.48z"/><path d="m38.08 142.52c-12.406 0-22.5-10.093-22.5-22.5s10.094-22.5 22.5-22.5c11.307 0 39.781 17.907 42.99 19.949.865.551 1.39 1.505 1.39 2.531s-.524 1.98-1.39 2.531c-3.157 2.008-30.753 19.363-42.419 19.935-.184.036-.375.054-.571.054zm0-39c-9.098 0-16.5 7.402-16.5 16.5 0 8.949 7.16 16.256 16.053 16.494.146-.022.295-.034.447-.034 7.018 0 25.463-10.287 35.683-16.48-10.219-6.193-28.665-16.48-35.683-16.48z"/></g></svg></g><!--ITEM: Illustration component 2--><g transform="translate(207.8125 1010.9375) rotate(0.0 1280.46875 296.09375)  scale(1.5665784565430563 1.5647335642698417)"><svg width="1634.733" height="378.459" viewBox="0.0 0.0 1634.733 378.459"><path d="m87.249 156.968h1471.936v45.04h-1471.936z" fill="#82b1ff"/><g fill="#5B53E1"><path d="m223.782 377.343v-337.226c0-22.065-16.946-40.117-37.658-40.117h-148.466c-20.712 0-37.658 18.052-37.658 40.117v337.226"/><path d="m458.941 377.343v-337.226c0-22.065-16.947-40.117-37.659-40.117h-148.465c-20.712 0-37.658 18.052-37.658 40.117v337.226"/><path d="m694.099 377.343v-337.226c0-22.065-16.946-40.117-37.658-40.117h-148.466c-20.712 0-37.658 18.052-37.658 40.117v337.226"/><path d="m929.258 377.343v-337.226c0-22.065-16.947-40.117-37.659-40.117h-148.465c-20.712 0-37.658 18.052-37.658 40.117v337.226"/><path d="m1164.416 377.343v-337.226c0-22.064-16.946-40.117-37.658-40.117h-148.466c-20.712 0-37.658 18.052-37.658 40.117v337.226"/><path d="m1634.733 377.343v-337.226c0-22.064-16.946-40.117-37.658-40.117h-148.465c-20.712 0-37.658 18.052-37.658 40.117v337.226"/></g><circle cx="111.891" cy="179.752" fill="#82b1ff" r="14.966"/><circle cx="347.05" cy="179.752" fill="#82b1ff" r="14.966"/><circle cx="582.208" cy="179.752" fill="#82b1ff" r="14.966"/><circle cx="817.367" cy="179.752" fill="#5B53E1" r="14.966"/><circle cx="1052.525" cy="179.752" fill="#82b1ff" r="14.966"/><circle cx="817.367" cy="179.752" fill="#82b1ff" r="14.966"/><path d="m1385.69 375.459 101.651-246.101c8.749-21.181.244-44.98-18.9-52.887l-137.221-56.678c-19.143-7.907-41.964 2.953-50.713 24.134l-137.407 331.533" fill="#fff"/><path d="m1143.1 378.461c-.383 0-.772-.074-1.147-.229-1.531-.634-2.257-2.39-1.623-3.92l137.407-331.533c9.401-22.76 33.911-34.314 54.629-25.758l137.221 56.679c20.721 8.559 29.93 34.042 20.527 56.805l-101.651 246.102c-.633 1.532-2.387 2.261-3.918 1.627-1.531-.633-2.26-2.387-1.627-3.918l101.651-246.102c8.14-19.706.391-41.673-17.272-48.968l-137.221-56.679c-17.661-7.296-38.654 2.801-46.794 22.506l-137.409 331.536c-.48 1.154-1.596 1.852-2.773 1.852z" fill="#5B53E1"/><ellipse cx="1328.558" cy="220.686" fill="#82b1ff" rx="15.544" ry="14.966" transform="matrix(.3818 -.9243 .9243 .3818 617.3938 1364.3706)"/><circle cx="1522.842" cy="179.752" fill="#82b1ff" r="14.966"/></svg></g><!--ITEM: Illustration component 3--><g transform="translate(1003.125 153.125) rotate(0.0 485.15625 695.3125)  scale(1.5639607040391994 1.5609110276505043)"><svg width="620.42" height="890.906" viewBox="0.0 0.0 620.42 890.906"><path d="m137.287 93.348c-3.959 23.787 1.658 44.539 12.547 46.351s22.926-16.001 26.885-39.788-10.576-58.191-10.576-58.191-24.897 27.841-28.856 51.628z" fill="#fff"/><path d="m151.331 142.823c-.664 0-1.328-.055-1.99-.165-6.492-1.08-11.55-7.157-14.245-17.11-2.48-9.161-2.753-20.771-.769-32.691 4.055-24.366 28.539-51.973 29.579-53.136.686-.766 1.713-1.129 2.729-.959 1.014.169 1.871.845 2.271 1.791.607 1.438 14.827 35.486 10.772 59.852-4.072 24.466-16.259 42.418-28.347 42.418zm13.844-95.289c-6.74 8.306-21.997 28.69-24.929 46.307-1.846 11.089-1.618 21.792.642 30.14 2.016 7.445 5.456 12.097 9.438 12.76 9.876 1.635 20.275-18.35 23.433-37.32 2.932-17.619-4.898-41.846-8.584-51.887zm-27.888 45.814h.01z" fill="#5B53E1"/><path d="m479.902 794.013c-3-43.802-21.005-79.384-55.043-108.778-36.251-31.305-90.309-54.848-165.264-71.977-53.441-12.212-55.998-30.905-58.322-50.834 42.872-.868 38.588-.634 56.713-2.564 83.616-8.903 36.113-81.764 36.113-173.311 0-61.746-39.909-124.148-78.506-170.065-3.831-4.557-5.506-10.546-4.528-16.418l.046-.279c1.065-6.396 5.12-11.897 10.923-14.788 16.873-8.406 46.934-24.86 46.934-65.243-2.716-3.813-5.798-2.032-16.618-10.607-20.253-16.051-57.405-42.405-100.205-32.123-2.886-18.384-10.077-35.422-10.077-35.422s-24.897 27.841-28.856 51.628c-1.045 6.278-1.417 12.34-1.207 17.903-.096.196-.202.386-.296.584-.337-.168-4.782 13.605-5.413 17.935-4.496 17.544-8.973 62.989-19.173 86.603-30.406 76.503-84.123 151.987-84.123 220.789 0 89.236 44.907 126.848 140.564 126.848 15.244 19.205 6.197 67.556 106.629 90.507 67.123 15.338 116.609 36.459 147.083 62.776 25.425 21.956 38.301 47.287 40.523 79.721 1.786 26.071-8.96 41.943-31.941 47.174-31.687 7.21-70.97-9.362-80.831-34.108-4.314-10.826-16.588-16.108-27.413-11.79-10.826 4.314-16.105 16.587-11.79 27.414 8.953 22.465 28.352 40.966 54.625 52.094 15.931 6.748 33.31 10.225 50.091 10.225 8.468-.001 16.787-.886 24.685-2.684 20.002-4.553 36.581-14.675 47.946-29.27 12.612-16.199 18.397-37.616 16.731-61.94z" fill="#fff"/><path d="m390.54 890.906c-17.376 0-35.102-3.618-51.261-10.462-27.017-11.443-46.99-30.53-56.242-53.746-2.384-5.98-2.296-12.53.248-18.444s7.238-10.483 13.218-12.867c5.979-2.384 12.53-2.297 18.444.247s10.483 7.238 12.867 13.22c9.371 23.518 46.978 39.211 77.378 32.294 21.62-4.921 31.306-19.328 29.613-44.044-2.163-31.582-14.711-56.258-39.491-77.655-30.098-25.992-79.149-46.894-145.791-62.122-79.07-18.069-91.986-52.516-100.533-75.311-2.24-5.973-4.201-11.205-6.936-15.124-48.672-.203-83.563-10.255-106.635-30.713-23.833-21.135-35.419-53.562-35.419-99.133 0-47.424 24.531-96.747 50.503-148.966 11.858-23.841 24.119-48.493 33.832-72.932 6.69-15.49 10.91-40.72 14.301-60.993 1.716-10.258 3.199-19.129 4.716-25.099.458-2.923 2.132-8.481 2.84-10.768 1.445-4.663 2.207-6.812 2.787-7.898-.156-5.701.271-11.634 1.273-17.649 4.056-24.366 28.539-51.973 29.579-53.137.686-.766 1.719-1.126 2.729-.959 1.014.169 1.871.846 2.271 1.792.282.67 6.585 15.722 9.742 32.98 40.988-8.292 76.378 14.946 99.639 33.38 5.612 4.448 8.934 5.918 11.358 6.991 2.216.98 4.131 1.828 5.84 4.228.362.508.557 1.116.557 1.74 0 43.721-34.054 60.685-48.596 67.929-4.919 2.451-8.397 7.159-9.301 12.595l-.046.278c-.83 4.986.579 10.088 3.865 13.996 36.135 42.988 79.209 107.724 79.209 171.995 0 26.78 4.135 52.153 7.784 74.539 5.846 35.868 10.464 64.198-3.525 82.54-8.172 10.716-22.255 17.001-43.054 19.216l-2.887.309c-13.66 1.465-13.66 1.465-43.943 2.067l-6.827.137c2.204 17.506 6.888 33.842 55.618 44.977 75.445 17.241 129.927 40.999 166.557 72.632 34.675 29.943 53.018 66.201 56.075 110.843 1.717 25.071-4.285 47.198-17.357 63.986-11.795 15.149-28.963 25.645-49.647 30.353-8.039 1.829-16.568 2.757-25.352 2.758zm-85.11-91.243c-2.267 0-4.536.433-6.705 1.297-4.492 1.791-8.018 5.223-9.928 9.664-1.911 4.441-1.977 9.361-.187 13.854 8.654 21.715 27.479 39.629 53.008 50.441 15.425 6.534 32.342 9.987 48.921 9.987 8.337-.001 16.418-.879 24.02-2.608 19.318-4.397 35.309-14.145 46.244-28.188 12.152-15.605 17.721-36.315 16.105-59.891-2.942-42.963-20.609-77.868-54.011-106.712-35.87-30.977-89.506-54.307-163.972-71.323-55.895-12.772-58.304-33.433-60.633-53.411-.098-.84.163-1.683.719-2.319.556-.638 1.354-1.011 2.2-1.027l10.141-.203c30.023-.599 30.023-.599 43.423-2.035l2.892-.31c19.07-2.03 31.8-7.555 38.918-16.888 12.422-16.287 7.988-43.493 2.374-77.936-3.686-22.61-7.862-48.237-7.862-75.504 0-34.478-13.498-91.634-77.802-168.134-4.417-5.255-6.309-12.122-5.191-18.841l.046-.278c1.22-7.328 5.909-13.676 12.545-16.982 22.157-11.037 44.802-26.977 45.264-61.481-.572-.547-1.303-.888-2.817-1.558-2.567-1.136-6.446-2.853-12.657-7.774-22.868-18.123-57.87-41.113-97.641-31.557-.815.195-1.673.041-2.369-.424-.696-.466-1.166-1.2-1.296-2.028-1.912-12.179-5.792-23.854-8.079-30.076-6.739 8.305-21.998 28.691-24.931 46.31-.985 5.92-1.378 11.739-1.168 17.297.019.495-.086.988-.304 1.434l-.283.557c-.074.155-.161.302-.258.44-.844 1.992-4.358 12.967-4.893 16.634-.016.105-.036.209-.062.312-1.467 5.723-2.941 14.538-4.649 24.746-3.444 20.593-7.731 46.223-14.677 62.301-9.771 24.589-22.089 49.355-34.001 73.306-25.647 51.567-49.874 100.277-49.874 146.291 0 43.756 10.925 74.714 33.401 94.644 22.163 19.652 56.235 29.205 104.163 29.205.916 0 1.781.418 2.35 1.135 3.775 4.756 6.056 10.838 8.696 17.88 8.58 22.881 20.329 54.218 96.252 71.567 67.606 15.45 117.527 36.791 148.376 63.431 26.071 22.514 39.275 48.501 41.555 81.786 1.875 27.38-9.975 44.774-34.268 50.304-32.974 7.509-73.936-9.954-84.284-35.923-1.79-4.492-5.222-8.018-9.664-9.929-2.297-.988-4.721-1.483-7.147-1.483z" fill="#5B53E1"/><circle cx="207.013" cy="118.226" fill="#5B53E1" r="14.38"/><path d="m254.792 113.918s-5.638 16.7 12.297 23.924l1.258-15.855z" fill="#5B53E1"/><path d="m267.089 140.842c-.379 0-.76-.072-1.121-.217-20.328-8.188-14.084-27.474-14.019-27.668.29-.858.952-1.54 1.802-1.854.851-.314 1.796-.227 2.575.235l13.556 8.069c.982.585 1.546 1.677 1.456 2.815l-1.258 15.855c-.076.952-.6 1.811-1.412 2.313-.48.301-1.028.452-1.579.452zm-10.16-22.161c-.292 3.997.597 10.187 7.521 14.492l.759-9.563z" fill="#5B53E1"/><path d="m266.088 683.22c102.669-27.688 231.85-110.654 245.026-120.48 54.988-3.9 110.655-34.113 106.037-126.715-3.659-73.376-45.884-167.979-106.496-259.827-15.129-22.925-16.384-57.895-21.184-76.628-.674-4.623-5.42-19.33-5.78-19.151-.101-.211-.213-.414-.316-.623.224-5.94-.173-12.413-1.288-19.117-4.228-25.4-30.813-55.129-30.813-55.129s-3.883 9.205-7.234 21.58c-8.471-13.74-17.759-24.13-17.759-24.13s-7.724 18.299-10.787 37.996c-34.94 1.577-64.413 22.758-81.98 36.68-1.008.799-1.949 1.508-2.836 2.15l-8.527 5.076c-3.096 1.433-4.799 1.878-6.382 4.101 0 43.121 32.098 60.691 50.116 69.667 6.197 3.087 10.527 8.961 11.664 15.791l.05.298c1.044 6.27-.745 12.665-4.835 17.531-40.417 48.082-82.176 113.093-83.776 177.771-5.97 3.442-11.392 7.771-16.105 13.004-29.603 32.866-20.144 88.991 18.609 131.786h-14.172c-12.211 0-22.203 9.991-22.203 22.203v3.011c0 12.212 9.991 22.203 22.203 22.203 0 0 145.796 1.383 149.135 1.533-1.939 6.077-114.534 63.35-171.353 78.673-65.967 17.789-108.789 45.362-127.276 81.953-13.077 25.883-13.639 55.854-1.624 86.674 11.035 28.308 34.336 47.849 65.61 55.023 8.577 1.968 17.386 2.927 26.262 2.927 33.248 0 67.412-13.466 93.669-37.832 8.542-7.928 9.041-21.279 1.114-29.821-7.927-8.543-21.278-9.04-29.821-1.115-18.258 16.944-42.458 26.538-65.169 26.536-5.669 0-11.25-.599-16.617-1.83-12.193-2.797-28.289-10.137-35.727-29.217-7.647-19.616-7.657-37.217-.028-52.314 12.666-25.078 47.452-45.907 100.593-60.238z" fill="#fff"/><g fill="#5B53E1"><path d="m218.071 872.049c-9.187 0-18.248-1.011-26.933-3.003-32.272-7.403-56.327-27.596-67.734-56.857-12.333-31.635-11.73-62.45 1.741-89.115 18.888-37.385 62.348-65.477 129.173-83.497 48.503-13.081 139.363-57.73 163.653-72.899-24.803-.294-98.62-1.012-140.682-1.41-13.869 0-25.174-11.306-25.174-25.203v-3.011c0-13.897 11.306-25.203 25.203-25.203h7.59c-16.888-20.246-27.94-43.522-31.323-66.174-3.773-25.263 2.288-48.212 17.067-64.62 4.461-4.953 9.63-9.231 15.385-12.735 2.361-66.826 47.12-133.577 84.429-177.963 3.547-4.219 5.068-9.726 4.172-15.108l-.049-.295c-.977-5.871-4.731-10.954-10.042-13.6-15.494-7.72-51.778-25.797-51.778-72.354 0-.624.194-1.232.557-1.74 1.792-2.518 3.814-3.412 6.155-4.448.396-.175.817-.362 1.271-.57l8.275-4.927c.885-.643 1.744-1.294 2.622-1.991 38.333-30.378 64.479-36.069 81.276-37.19 3.291-18.871 10.283-35.571 10.592-36.301.399-.947 1.256-1.624 2.271-1.793 1.014-.171 2.044.193 2.729.96.333.371 7.158 8.043 14.474 18.958 2.786-9.063 5.386-15.26 5.518-15.574.399-.947 1.256-1.624 2.271-1.793 1.017-.168 2.045.193 2.73.959 1.109 1.24 27.215 30.676 31.536 56.637 1.07 6.427 1.525 12.766 1.355 18.857.608 1.11 1.411 3.367 2.986 8.449.756 2.439 2.542 8.374 3.027 11.479 1.366 5.372 2.458 12.061 3.613 19.139 2.945 18.04 6.61 40.49 17.132 56.434 65.542 99.316 103.537 192.126 106.988 261.33 2.155 43.217-8.467 76.499-31.573 98.923-18.345 17.804-44.743 28.469-76.381 30.87-16.898 12.193-143.348 92.947-245.323 120.447-52.296 14.104-86.426 34.4-98.7 58.693-7.228 14.305-7.178 31.084.146 49.872 6.962 17.859 22.116 24.749 33.603 27.384 5.073 1.164 10.438 1.754 15.946 1.754h.006c22.161 0 45.756-9.62 63.122-25.736 9.742-9.038 25.021-8.467 34.061 1.274 9.04 9.74 8.469 25.02-1.272 34.06-26.458 24.55-61.343 38.631-95.711 38.631zm59.247-354.199c-10.588 0-19.203 8.614-19.203 19.203v3.011c0 10.589 8.614 19.203 19.203 19.203 5.984.057 145.917 1.385 149.27 1.536.933.042 1.792.517 2.326 1.282.534.767.681 1.737.396 2.627-.436 1.365-1.094 3.43-21.011 14.416-12.312 6.793-28.524 15.048-45.648 23.247-20.42 9.776-71.701 33.536-106.771 42.994-65.109 17.558-107.293 44.611-125.38 80.409-12.682 25.102-13.203 54.229-1.507 84.23 10.664 27.354 33.21 46.243 63.486 53.189 8.245 1.892 16.855 2.851 25.591 2.851 32.871 0 66.268-13.497 91.628-37.031 7.316-6.789 7.745-18.265.956-25.58-6.789-7.317-18.265-7.745-25.582-.957-18.445 17.118-43.568 27.338-67.203 27.338-.003 0-.004 0-.007 0-5.959 0-11.776-.642-17.288-1.906-12.898-2.959-29.936-10.748-37.851-31.052-7.97-20.444-7.94-38.867.088-54.757 13.064-25.857 48.506-47.221 102.493-61.781 102.708-27.698 230.497-109.908 244.014-119.988.46-.343 1.009-.547 1.581-.587 40.719-2.889 108.279-22.783 103.253-123.573-3.398-68.148-41.045-159.89-106.004-258.324-11.229-17.015-15.008-40.167-18.045-58.771-1.144-7.007-2.225-13.626-3.542-18.764-.026-.104-.047-.207-.062-.312-.579-3.973-4.35-15.735-5.247-17.831-.104-.145-.195-.298-.272-.461l-.304-.599c-.217-.444-.321-.936-.302-1.43.225-5.95-.196-12.179-1.25-18.511-3.172-19.059-19.804-41.124-26.89-49.821-1.415 3.824-3.449 9.72-5.303 16.564-.312 1.155-1.281 2.014-2.465 2.185-1.186.179-2.356-.376-2.984-1.395-5.232-8.489-10.834-15.735-14.238-19.907-2.438 6.596-6.723 19.372-8.789 32.659-.219 1.411-1.403 2.472-2.829 2.536-15.833.715-41.379 5.228-80.252 36.034-.984.779-1.946 1.509-2.941 2.229-.072.053-.146.102-.223.147l-8.526 5.076c-.089.053-.181.101-.274.145-.54.25-1.038.471-1.502.676-1.668.738-2.483 1.121-3.134 1.768.457 37.014 24.714 54.093 48.448 65.917 7.027 3.501 11.993 10.224 13.285 17.983l.049.295c1.185 7.119-.819 14.392-5.498 19.957-37.001 44.02-81.45 110.271-83.074 175.915-.026 1.046-.594 2.002-1.5 2.524-5.792 3.34-10.965 7.517-15.375 12.413-13.558 15.053-19.095 36.261-15.591 59.719 3.493 23.387 15.637 47.553 34.195 68.046.796.879 1 2.146.519 3.23s-1.556 1.783-2.742 1.783h-14.172zm207.701-434.741c-.316.156-.655.254-.999.292.329-.034.666-.127.999-.292z"/><circle cx="381.435" cy="83.734" r="15.355"/><path d="m332.48 79.005s6.02 17.832-13.131 25.547l-1.344-16.93z"/><path d="m319.349 107.551c-.551 0-1.098-.151-1.579-.449-.812-.503-1.336-1.361-1.412-2.313l-1.343-16.93c-.09-1.139.474-2.23 1.456-2.815l14.475-8.617c.778-.464 1.725-.551 2.575-.235.85.313 1.513.995 1.802 1.854.069.205 6.678 20.616-14.853 29.289-.362.144-.742.216-1.121.216zm1.795-18.306.847 10.669c4.543-2.731 7.265-6.52 8.109-11.303.312-1.767.322-3.434.213-4.825z"/><path d="m441.081 47.216c-.509 0-1.018-.13-1.475-.388-3.613-2.039-16.71-2.819-24.118-2.832-1.657-.003-2.998-1.349-2.995-3.005.003-1.655 1.346-2.995 3-2.995h.005c1.776.003 15.231.096 23.174 2.163l2.4-15.497c.253-1.638 1.787-2.757 3.424-2.506 1.637.254 2.759 1.787 2.505 3.424l-2.958 19.095c-.151.974-.77 1.811-1.656 2.24-.411.201-.859.301-1.306.301z"/><path d="m351.794 384.223c-.453 0-.914-.103-1.346-.32-.489-.245-49.005-24.298-69.607-4.424-1.193 1.151-3.091 1.117-4.242-.076-1.15-1.192-1.116-3.092.076-4.242 9.931-9.579 26.422-11.969 47.696-6.91 15.622 3.715 28.246 10.026 28.776 10.293 1.479.746 2.074 2.549 1.33 4.028-.528 1.047-1.585 1.651-2.683 1.651z"/><path d="m331.658 536.511c-.093 0-.188-.004-.283-.013-21.661-2.025-41.039-18.677-41.853-19.384-1.25-1.087-1.382-2.98-.296-4.23 1.085-1.251 2.979-1.385 4.231-.3.186.161 18.764 16.097 38.477 17.939 1.65.154 2.862 1.617 2.708 3.267-.146 1.555-1.453 2.721-2.984 2.721z"/></g></svg></g><!--ITEM: Illustration component 4--><g transform="translate(675.0 720.3125) rotate(0.0 42.1875 42.1875)  scale(1.252672367717798 1.252226179875334)"><svg width="67.356" height="67.38" viewBox="0.0 0.0 67.356 67.38"><path d="m35.808 1.595 5.44 18c.95 3.128 3.4 5.575 6.53 6.52l18 5.45c1.174.355 1.837 1.594 1.483 2.767-.215.711-.771 1.268-1.483 1.483l-18 5.45c-3.13.945-5.58 3.392-6.53 6.52l-5.44 18c-.346 1.176-1.579 1.85-2.756 1.504-.725-.213-1.291-.78-1.504-1.504l-5.45-18c-.943-3.129-3.391-5.577-6.52-6.52l-18-5.45c-1.174-.355-1.837-1.594-1.483-2.767.215-.711.771-1.268 1.483-1.483l18-5.45c3.129-.943 5.577-3.391 6.52-6.52l5.45-18c.346-1.176 1.579-1.85 2.756-1.504.724.212 1.291.779 1.504 1.504z" fill="#82b1ff"/></svg></g><!--ITEM: Illustration component 5--><g transform="translate(929.6875 203.125) rotate(0.0 23.4375 23.4375)  scale(0.6959290931765545 0.6956812110418522)"><svg width="67.356" height="67.38" viewBox="0.0 0.0 67.356 67.38"><path d="m35.808 1.595 5.44 18c.95 3.128 3.4 5.575 6.53 6.52l18 5.45c1.174.355 1.837 1.594 1.483 2.767-.215.711-.771 1.268-1.483 1.483l-18 5.45c-3.13.945-5.58 3.392-6.53 6.52l-5.44 18c-.346 1.176-1.579 1.85-2.756 1.504-.725-.213-1.291-.78-1.504-1.504l-5.45-18c-.943-3.129-3.391-5.577-6.52-6.52l-18-5.45c-1.174-.355-1.837-1.594-1.483-2.767.215-.711.771-1.268 1.483-1.483l18-5.45c3.129-.943 5.577-3.391 6.52-6.52l5.45-18c.346-1.176 1.579-1.85 2.756-1.504.724.212 1.291.779 1.504 1.504z" fill="#82b1ff"/></svg></g><!--ITEM: Illustration component 6--><g transform="translate(432.8125 476.5625) rotate(0.0 28.90625 28.90625)  scale(0.8583125482510838 0.8580068269516178)"><svg width="67.356" height="67.38" viewBox="0.0 0.0 67.356 67.38"><path d="m35.808 1.595 5.44 18c.95 3.128 3.4 5.575 6.53 6.52l18 5.45c1.174.355 1.837 1.594 1.483 2.767-.215.711-.771 1.268-1.483 1.483l-18 5.45c-3.13.945-5.58 3.392-6.53 6.52l-5.44 18c-.346 1.176-1.579 1.85-2.756 1.504-.725-.213-1.291-.78-1.504-1.504l-5.45-18c-.943-3.129-3.391-5.577-6.52-6.52l-18-5.45c-1.174-.355-1.837-1.594-1.483-2.767.215-.711.771-1.268 1.483-1.483l18-5.45c3.129-.943 5.577-3.391 6.52-6.52l5.45-18c.346-1.176 1.579-1.85 2.756-1.504.724.212 1.291.779 1.504 1.504z" fill="rgb(90,56,253)"/></svg></g><!--ITEM: Illustration component 7--><g transform="translate(2420.3125 673.4375) rotate(0.0 42.1875 42.1875)  scale(1.252672367717798 1.252226179875334)"><svg width="67.356" height="67.38" viewBox="0.0 0.0 67.356 67.38"><path d="m35.808 1.595 5.44 18c.95 3.128 3.4 5.575 6.53 6.52l18 5.45c1.174.355 1.837 1.594 1.483 2.767-.215.711-.771 1.268-1.483 1.483l-18 5.45c-3.13.945-5.58 3.392-6.53 6.52l-5.44 18c-.346 1.176-1.579 1.85-2.756 1.504-.725-.213-1.291-.78-1.504-1.504l-5.45-18c-.943-3.129-3.391-5.577-6.52-6.52l-18-5.45c-1.174-.355-1.837-1.594-1.483-2.767.215-.711.771-1.268 1.483-1.483l18-5.45c3.129-.943 5.577-3.391 6.52-6.52l5.45-18c.346-1.176 1.579-1.85 2.756-1.504.724.212 1.291.779 1.504 1.504z" fill="#82b1ff"/></svg></g><!--ITEM: Illustration component 8--><g transform="translate(2612.5 528.125) rotate(0.0 23.4375 23.4375)  scale(0.6959290931765545 0.6956812110418522)"><svg width="67.356" height="67.38" viewBox="0.0 0.0 67.356 67.38"><path d="m35.808 1.595 5.44 18c.95 3.128 3.4 5.575 6.53 6.52l18 5.45c1.174.355 1.837 1.594 1.483 2.767-.215.711-.771 1.268-1.483 1.483l-18 5.45c-3.13.945-5.58 3.392-6.53 6.52l-5.44 18c-.346 1.176-1.579 1.85-2.756 1.504-.725-.213-1.291-.78-1.504-1.504l-5.45-18c-.943-3.129-3.391-5.577-6.52-6.52l-18-5.45c-1.174-.355-1.837-1.594-1.483-2.767.215-.711.771-1.268 1.483-1.483l18-5.45c3.129-.943 5.577-3.391 6.52-6.52l5.45-18c.346-1.176 1.579-1.85 2.756-1.504.724.212 1.291.779 1.504 1.504z" fill="#82b1ff"/></svg></g><!--ITEM: Illustration component 9--><g transform="translate(2250.0 117.1875) rotate(-90.00000000000045 129.6875 88.28125)  scale(0.9144320737821087 0.9173793540610192)"><svg width="283.646" height="192.464" viewBox="0.0 0.0 283.646 192.464"><path d="m275.541 3.329a5 5 0 0 0 -8.8-1.218 153.284 153.284 0 0 1 -124.926 64.689 153.261 153.261 0 0 1 -124.915-64.671 5 5 0 0 0 -8.792 1.212 140.751 140.751 0 0 0 -8.108 47.308c0 78.2 63.618 141.815 141.815 141.815s141.831-63.618 141.831-141.815a141.279 141.279 0 0 0 -8.105-47.32z" fill="rgb(130,177,255)"/></svg></g><!--ITEM: Illustration component 10--><g transform="translate(2401.5625 234.375) rotate(0.0 -235.15625 53.90625)  scale(-1.2767047613876974 1.2782474153466756)"><svg width="368.38" height="84.344" viewBox="0.0 0.0 368.38 84.344"><path d="m368.38 84.344h-368.38c79.06 0 108.61-83.77 150.28-84.34s58 60.2 101.84 46.46c63.29-19.79 88.62 30.7 116.26 37.88z" fill="rgb(90,56,253)"/></svg></g><!--ITEM: Illustration component 11--><g transform="translate(98.4375 1589.0625) rotate(0.0 1398.4375 9.375)  scale(1.7196722823413673 1.644736842105263)"><svg width="1626.4" height="11.4" viewBox="0.0 0.0 1626.4 11.4"><path d="m1623.4 8.8h-1620.4c-1.7 0-3-1.3-3-3s1.3-3 3-3h1620.4c1.7 0 3 1.3 3 3s-1.3 3-3 3z" fill="#5B53E1"/></svg></g><!--ITEM: Illustration component 12--><g transform="translate(2693.75 250.0) rotate(0.0 -247.65625 59.375)  scale(-1.3230207276029702 1.3144204374391217)"><svg width="374.38" height="90.344" viewBox="0.0 0.0 374.38 90.344"><path d="m371.38 87.344h-368.38c79.06 0 108.61-83.77 150.28-84.34s58 60.2 101.84 46.46c63.29-19.79 88.62 30.7 116.26 37.88z" fill="#fff"/><path d="m371.38 90.344h-368.38c-1.657 0-3-1.343-3-3s1.343-3 3-3c44.729 0 72.859-27.23 97.679-51.255 18.198-17.616 33.915-32.83 52.561-33.085.21-.003.421-.004.63-.004 19.98 0 34.173 13.028 47.902 25.632 15.624 14.342 30.38 27.886 52.45 20.969 45.038-14.083 71.396 6.174 92.573 22.451 9.287 7.138 17.308 13.302 25.339 15.388 1.462.38 2.413 1.786 2.222 3.284s-1.466 2.62-2.976 2.62zm-332.867-6h319.204c-4.692-2.937-9.452-6.595-14.578-10.535-20.077-15.43-45.063-34.634-87.124-21.482-4.787 1.5-9.269 2.17-13.495 2.171-18.176.001-31.671-12.389-44.806-24.446-13.609-12.493-26.479-24.306-44.394-24.048-16.265.222-31.188 14.669-48.47 31.396-17.623 17.061-38.365 37.138-66.337 46.944z" fill="#5B53E1"/></svg></g><!--ITEM: Illustration component 13--><g transform="translate(193.75 1217.1875) rotate(-15.282244456490274 64.84375 282.03125) translate(0.0 0.0) scale(1.3622636554621848 1.3694161204175772)"><svg width="95.20000000000002" height="281.82631578947365" viewBox="0.0 0.0 95.20000000000002 281.82631578947365"><path d="m47.6 95.2a47.6 47.6 0 1 1 47.6-47.6 47.654 47.654 0 0 1 -47.6 47.6zm0-89.2a41.6 41.6 0 1 0 41.6 41.6 41.646 41.646 0 0 0 -41.6-41.6z" fill="#5B53E1"/><path d="m47.6 95.2a47.6 47.6 0 1 1 47.6-47.6 47.654 47.654 0 0 1 -47.6 47.6zm0-89.2a41.6 41.6 0 1 0 41.6 41.6 41.646 41.646 0 0 0 -41.6-41.6z" fill="#5B53E1"/><circle cx="47.6" cy="47.6" fill="#fff" r="44.6"/><g fill="#5B53E1"><path d="m47.6 95.2a47.6 47.6 0 1 1 47.6-47.6 47.654 47.654 0 0 1 -47.6 47.6zm0-89.2a41.6 41.6 0 1 0 41.6 41.6 41.646 41.646 0 0 0 -41.6-41.6z"/><path d="m47.6 411.9a3 3 0 0 1 -3-3v-316.7a3 3 0 0 1 6 0v316.7a3 3 0 0 1 -3 3z"/><path d="m47.6 57.6a47.63 47.63 0 0 1 -43.141-27.627 3 3 0 1 1 5.449-2.51 41.616 41.616 0 0 0 37.692 24.137 41.76 41.76 0 0 0 37.734-24.051 3 3 0 0 1 5.44 2.531 47.781 47.781 0 0 1 -43.174 27.52z"/><path d="m66.3 53.4a2.98 2.98 0 0 1 -1.261-.279 47.83 47.83 0 0 1 -27.639-43.221 47.778 47.778 0 0 1 .492-6.825 3 3 0 1 1 5.937.86 41.866 41.866 0 0 0 -.429 5.965 41.807 41.807 0 0 0 24.163 37.779 3 3 0 0 1 -1.263 5.721z"/></g></svg></g><!--ITEM: Illustration component 14--><g transform="translate(214.0625 901.5625) rotate(-7.47237550788474 84.375 394.53125) translate(0.0 0.0) scale(1.4625585023400938 1.4596590698878982)"><svg width="115.38" height="481.7049504950495" viewBox="0.0 0.0 115.38 481.7049504950495"><path d="m101.47 3c-6.036-.006-10.934 4.884-10.94 10.92v.01c0-6.036-4.894-10.93-10.93-10.93-.003 0-.007 0-.01 0-6.036 0-10.93 4.894-10.93 10.93 0-6.036-4.894-10.93-10.93-10.93-.003 0-.007 0-.01 0-6.036-.006-10.934 4.884-10.94 10.92v.01c0-6.029-4.881-10.919-10.91-10.93-6.036-.039-10.961 4.823-11 10.86v.07c-0-6.036-4.894-10.93-10.93-10.93-6.036-.005-10.934 4.884-10.94 10.92v.01 45.77c-.005 30.199 24.471 54.684 54.67 54.69h.02c30.204 0 54.69-24.486 54.69-54.69v-45.77c0-6.028-4.881-10.919-10.91-10.93z" fill="#fff"/><g fill="#5B53E1"><path d="m57.69 117.39c-15.427-.003-29.911-6.005-40.803-16.901-10.893-10.897-16.89-25.382-16.887-40.789v-45.77c.007-7.689 6.255-13.93 13.93-13.93h.013c4.428 0 8.382 2.079 10.934 5.312 2.573-3.265 6.572-5.332 11.012-5.312 4.406.008 8.343 2.083 10.891 5.306 2.554-3.232 6.504-5.306 10.93-5.306h.013c4.43 0 8.383 2.075 10.937 5.304 2.553-3.229 6.504-5.304 10.93-5.304 4.433 0 8.386 2.076 10.941 5.305 2.553-3.231 6.504-5.305 10.929-5.305h.016c7.667.014 13.905 6.263 13.905 13.93v45.77c-.001 31.811-25.881 57.69-57.691 57.69zm-43.757-111.39c-4.372 0-7.929 3.552-7.933 7.923v45.777c-.002 13.805 5.371 26.784 15.13 36.546 9.759 9.763 22.736 15.141 36.54 15.144 28.521 0 51.71-23.188 51.71-51.69v-45.77c0-4.365-3.551-7.922-7.916-7.93-.001 0-.003 0-.004 0-4.37 0-7.926 3.552-7.93 7.923v.001.006c0 1.657-1.343 3-3 3-1.634 0-2.963-1.307-2.999-2.932 0-.001 0-.003 0-.005 0-.001 0-.002 0-.004 0 0 0 0 0-.001 0-.003 0-.005 0-.008 0-.001 0-.002 0-.004s0-.003 0-.005c0 0 0-.001 0-.002 0-.007 0-.015 0-.022 0-.006 0-.011 0-.017-.001-4.372-3.558-7.93-7.931-7.93-4.383 0-7.94 3.558-7.94 7.93 0 1.657-1.343 3-3 3s-3-1.343-3-3c0-4.373-3.557-7.93-7.93-7.93-.002 0-.005 0-.007 0-4.382 0-7.939 3.552-7.943 7.923v.001.006c0 1.657-1.343 3-3 3-1.636 0-2.966-1.309-2.999-2.937 0-.001 0-.002 0-.004 0-.001 0-.003 0-.003 0-.001 0-.001 0-.002 0-.004 0-.008 0-.013 0 0 0-.001 0-.002 0-.002 0-.005 0-.008 0-.001 0-.002 0-.003 0-.004 0-.007 0-.011 0-.006 0-.011 0-.017 0-4.365-3.551-7.922-7.916-7.93-.017 0-.035 0-.052 0-4.363 0-7.915 3.523-7.943 7.879v.002.048c0 1.657-1.343 3-3 3-1.642 0-2.976-1.32-3-2.957 0-.001 0-.003 0-.004s0-.003 0-.005 0-.004 0-.005v-.001c0-.002 0-.005 0-.008 0-.001 0-.002 0-.004 0 0 0-.001 0-.002 0-.004 0-.009 0-.013 0-4.373-3.557-7.93-7.93-7.93-.002-0-.005-0-.007-0z"/><path d="m57.72 540.58c-1.657 0-3-1.343-3-3v-421.43c0-1.657 1.343-3 3-3s3 1.343 3 3v421.43c0 1.657-1.343 3-3 3z"/><path d="m90.53 59.06c-1.657 0-3-1.343-3-3v-43c0-1.657 1.343-3 3-3s3 1.343 3 3v43c0 1.657-1.343 3-3 3z"/><path d="m68.65 59.06c-1.657 0-3-1.343-3-3v-43c0-1.657 1.343-3 3-3s3 1.343 3 3v43c0 1.657-1.343 3-3 3z"/><path d="m46.78 59.06c-1.657 0-3-1.343-3-3v-43c0-1.657 1.343-3 3-3s3 1.343 3 3v43c0 1.657-1.343 3-3 3z"/><path d="m24.9 59.06c-1.657 0-3-1.343-3-3v-43c0-1.657 1.343-3 3-3s3 1.343 3 3v43c0 1.657-1.343 3-3 3z"/></g></svg></g><!--ITEM: Illustration component 15--><g transform="translate(2842.1875 1464.0625) rotate(0.0 -73.4375 67.96875)  scale(-1.8163436924180405 1.8161322645290583)"><svg width="80.863" height="74.85" viewBox="0.0 0.0 80.863 74.85"><path d="m27.354 71.85-23.09-41.25c-2.686-4.826-.952-10.915 3.874-13.601.599-.334 1.231-.605 1.886-.809 4.427-1.355 9.206.507 11.55 4.5l10.69 18.24-.25-26.88c-.028-4.97 3.979-9.022 8.95-9.05h.05c4.822-.005 8.791 3.792 9 8.61l1.12 29 9.09-13.93c2.593-3.937 7.783-5.206 11.9-2.91l1.19.67c4.291 2.443 5.812 7.886 3.41 12.2l-19.96 35.21" fill="#fff"/><path d="m27.357 74.851c-1.051 0-2.071-.553-2.621-1.535l-23.09-41.25c-1.692-3.041-2.099-6.551-1.147-9.89.951-3.34 3.146-6.109 6.18-7.798.778-.433 1.603-.787 2.452-1.052 5.796-1.772 11.97.633 15.03 5.846l4.998 8.528-.145-15.622c-.036-6.628 5.317-12.041 11.933-12.078h.011c6.509 0 11.773 5.04 12.053 11.48l.757 19.603 3.943-6.043c3.445-5.23 10.414-6.936 15.874-3.89l1.2.676c5.709 3.25 7.748 10.547 4.559 16.274l-19.97 35.23c-.817 1.442-2.648 1.947-4.089 1.13s-1.947-2.648-1.13-4.089l19.96-35.21c1.583-2.843.563-6.492-2.284-8.114l-1.177-.663c-2.719-1.516-6.204-.665-7.923 1.945l-9.083 13.92c-.714 1.093-2.053 1.599-3.312 1.252-1.259-.348-2.148-1.471-2.198-2.776l-1.12-29c-.141-3.204-2.773-5.725-5.995-5.725-.002 0-.004 0-.006 0-3.344.019-6.021 2.725-6.003 6.033l.25 26.869c.013 1.359-.89 2.557-2.201 2.919-1.31.361-2.7-.202-3.388-1.375l-10.69-18.24c-1.647-2.806-4.971-4.101-8.084-3.148-.442.138-.886.328-1.305.562-1.633.909-2.815 2.4-3.327 4.199s-.293 3.688.616 5.322l23.087 41.244c.809 1.446.293 3.274-1.152 4.083-.464.26-.967.383-1.463.383z" fill="#5B53E1"/></svg></g></svg>