<svg width="518" height="406" viewBox="0 0 518 406" fill="none" xmlns="http://www.w3.org/2000/svg">
<path d="M141.405 0.0595274C169.367 0.0413408 196.706 8.43638 219.96 24.1817C243.217 39.927 261.341 62.3146 272.045 88.5117C282.748 114.708 285.546 143.537 280.086 171.347C274.626 199.157 261.153 224.7 241.372 244.742L147.101 340.34C143.968 343.517 138.842 343.517 135.709 340.34L41.4343 244.742C21.6531 224.7 8.18013 199.157 2.72034 171.346C-2.73976 143.535 0.0587439 114.707 10.762 88.5105C21.4653 62.3134 39.5926 39.9255 62.8464 24.1805C86.1033 8.43546 113.442 0.0407634 141.405 0.0595274ZM259.021 406C233.267 406.062 208.057 398.936 186.117 385.49C181.912 382.913 181.409 377.12 184.872 373.608L276.67 280.524C295.506 261.436 310.192 238.565 319.788 213.377C326.901 194.708 331.1 175.072 332.273 155.177C332.705 147.849 341.92 143.938 347.073 149.165L358.997 161.257C378.77 181.308 392.232 206.854 397.686 234.666C403.143 262.475 400.341 291.302 389.638 317.5C378.938 343.698 360.816 366.087 337.568 381.84C314.317 397.593 286.984 406 259.021 406ZM476.597 244.742L456.402 265.222C454.179 267.476 450.288 265.8 450.294 262.635V262.635C450.362 237.151 445.446 211.906 435.83 188.362C426.214 164.818 412.086 143.443 394.269 125.472L302.498 32.4038C299.03 28.8868 299.542 23.0834 303.758 20.5112C331.18 3.78384 363.484 -3.06285 395.385 1.26822C430.399 6.02157 462.389 23.8961 485.057 51.3722C507.724 78.8483 519.427 113.935 517.861 149.724C516.295 185.512 501.575 219.41 476.597 244.742Z" fill="#5B53E1"/>
</svg>
